<?xml version="1.0" encoding="utf-8"?>
<COLLADA xmlns="http://www.collada.org/2005/11/COLLADASchema" version="1.4.1" xmlns:xsi="http://www.w3.org/2001/XMLSchema-instance">
  <asset>
    <contributor>
      <author>Blender User</author>
      <authoring_tool>Blender 4.4.3 commit date:2025-04-29, commit time:14:09, hash:802179c51ccc</authoring_tool>
    </contributor>
    <created>2025-08-26T11:12:32</created>
    <modified>2025-08-26T11:12:32</modified>
    <unit name="meter" meter="1"/>
    <up_axis>Z_UP</up_axis>
  </asset>
  <library_cameras>
    <camera id="Camera-camera" name="Camera.005">
      <optics>
        <technique_common>
          <perspective>
            <xfov sid="xfov">39.59775</xfov>
            <aspect_ratio>1.777778</aspect_ratio>
            <znear sid="znear">0.1</znear>
            <zfar sid="zfar">100</zfar>
          </perspective>
        </technique_common>
      </optics>
      <extra>
        <technique profile="blender">
          <shiftx sid="shiftx" type="float">0</shiftx>
          <shifty sid="shifty" type="float">0</shifty>
          <dof_distance sid="dof_distance" type="float">10</dof_distance>
        </technique>
      </extra>
    </camera>
  </library_cameras>
  <library_lights>
    <light id="Light-light" name="Light.004">
      <technique_common>
        <point>
          <color sid="color">1000 1000 1000</color>
          <constant_attenuation>1</constant_attenuation>
          <linear_attenuation>0</linear_attenuation>
          <quadratic_attenuation>0</quadratic_attenuation>
        </point>
      </technique_common>
      <extra>
        <technique profile="blender">
          <type sid="type" type="int">0</type>
          <flag sid="flag" type="int">0</flag>
          <mode sid="mode" type="int">2097153</mode>
          <red sid="red" type="float">1</red>
          <green sid="green" type="float">1</green>
          <blue sid="blue" type="float">1</blue>
          <energy sid="blender_energy" type="float">1000</energy>
          <spotsize sid="spotsize" type="float">75</spotsize>
          <spotblend sid="spotblend" type="float">0.15</spotblend>
          <clipsta sid="clipsta" type="float">0.04999995</clipsta>
          <clipend sid="clipend" type="float">40</clipend>
          <radius sid="radius" type="float">0.1</radius>
          <area_shape sid="area_shape" type="int">1</area_shape>
          <area_size sid="area_size" type="float">0.1</area_size>
          <area_sizey sid="area_sizey" type="float">0.1</area_sizey>
          <area_sizez sid="area_sizez" type="float">1</area_sizez>
        </technique>
      </extra>
    </light>
  </library_lights>
  <library_effects>
    <effect id="Mesh001_001-effect">
      <profile_COMMON>
        <technique sid="common">
          <lambert>
            <emission>
              <color sid="emission">0 0 0 1</color>
            </emission>
            <diffuse>
              <color sid="diffuse">0.6784314 0.709804 0.7411765 1</color>
            </diffuse>
            <index_of_refraction>
              <float sid="ior">1.5</float>
            </index_of_refraction>
          </lambert>
        </technique>
      </profile_COMMON>
    </effect>
  </library_effects>
  <library_images/>
  <library_materials>
    <material id="Mesh001_001-material" name="Mesh001.001">
      <instance_effect url="#Mesh001_001-effect"/>
    </material>
  </library_materials>
  <library_geometries>
    <geometry id="Mesh001_001-mesh" name="Mesh001.001">
      <mesh>
        <source id="Mesh001_001-mesh-positions">
          <float_array id="Mesh001_001-mesh-positions-array" count="945">0.1101704 -0.02611362 0.003702461 0.1109363 -0.03521215 0.004310488 0.07785981 -0.06984663 0.0228973 0.07072657 -0.05033499 0.02264511 0.07710558 -0.0618155 0.0228973 0.08570933 -0.06334531 0.0228973 0.1071916 -0.0345754 0.0228973 0.1096197 -0.02508729 0.0228973 0.119612 -0.02091073 0.02307343 0.1202119 -0.07487416 0.02265012 0.1006125 -0.02042895 0.02262973 0.120172 -0.07492953 -0.0518307 0.07071173 -0.06563442 -0.0371297 0.07080447 -0.06050026 -0.03738582 0.07073837 -0.06518137 -0.03203976 0.07080143 -0.05035001 -0.03192049 0.07078272 -0.07487368 -0.05179309 0.07075828 -0.06123316 -0.05187863 0.1057744 -0.04161375 -0.03679752 0.1063091 -0.01964896 -0.03203535 0.1040979 -0.03313583 -0.0373798 0.1044508 -0.02023667 -0.03756582 0.09173738 -0.05650293 -0.03755408 0.08509409 -0.05790615 -0.0374552 0.1033083 -0.0205723 -0.05177545 0.09121382 -0.05509305 -0.05189567 0.1043617 -0.03696352 -0.05184608 0.1201686 -0.02048736 -0.05178755 0.1037691 -0.04671436 -0.03205913 0.08145642 -0.0637663 -0.03212112 0.07079446 -0.07487756 0.02260553 0.07945746 -0.06152534 0.003724694 0.08149069 -0.06900119 0.00356841 -0.05002081 -0.05556356 0.003219008 -0.05131721 -0.04714995 0.004000842 -0.07953727 -0.0129258 0.02318722 -0.06487417 -0.0132758 0.02314496 -0.06598085 -0.02539736 0.0228973 -0.05294787 -0.0471875 0.0228973 -0.05317974 -0.05623716 0.0228973 -0.04531568 -0.05286276 0.0228973 -0.04074686 -0.06163114 0.02260482 -0.04067546 -0.03704357 0.02265936 -0.08013528 -0.06163871 0.02263772 -0.0406906 -0.03704994 -0.03179353 -0.04100209 -0.05644524 -0.0322327 -0.04103296 -0.05650711 -0.03690868 -0.0407381 -0.06165009 -0.05176746 -0.04138189 -0.04958289 -0.05169212 -0.06554621 -0.01217699 -0.03176796 -0.07781434 -0.01152849 -0.05258703 -0.08018612 -0.06162548 -0.05181312 -0.0776059 -0.0112555 -0.03673559 -0.07952773 -0.02008873 -0.03464406 -0.08016049 -0.01230973 -0.03173041 -0.06954658 -0.03703087 -0.03217804 -0.06979656 -0.03669536 -0.0368877 -0.04066872 -0.04911881 -0.03742909 -0.06496256 -0.03364169 -0.03734761 -0.06957745 -0.02744221 -0.05160313 -0.06773591 -0.02496969 0.003685355 -0.0733326 -0.01877129 0.003680646 -0.04496848 0.05321061 0.0039891 -0.05364561 0.05183815 0.003444314 -0.04434841 0.05239176 0.0228973 -0.05354744 0.05615836 0.0228973 -0.06440538 0.03262448 0.0228973 -0.07354736 0.03615838 0.0228973 -0.04146695 0.04510778 0.0229398 -0.04012459 0.06209927 0.0226078 -0.07945102 0.01769524 0.02260327 -0.07945597 0.06208646 0.02262556 -0.06645172 0.02009904 0.02327811 -0.04011303 0.06209862 -0.0187807 -0.04005247 0.05045866 -0.01917165 -0.07945501 0.06209969 -0.05178654 -0.07943445 0.03565138 -0.05176717 -0.07949006 0.01772165 -0.01877284 -0.07951539 0.03533911 -0.01916688 -0.03951281 0.04945623 -0.03185719 -0.05064684 0.05244773 -0.03129875 -0.04995316 0.05124223 -0.05174744 -0.05969268 0.04430192 -0.05172055 -0.06507027 0.03508096 -0.01944214 -0.0671336 0.03556805 -0.05178016 -0.04946386 0.05068975 -0.01942938 -0.04973459 0.06216377 -0.01916366 -0.05006062 0.06207901 -0.05177152 -0.06892257 0.03547775 -0.03746098 -0.04966378 0.05299437 -0.03755235 -0.06422495 0.02384811 -0.03176468 -0.0606094 0.05007147 -0.0340811 -0.0646075 0.02163505 -0.01904362 -0.0677039 0.03649967 -0.03112882 -0.06950616 0.02877366 0.003645837 -0.07028543 0.03737425 0.004369378 0.01663911 0.04870164 0.003447949 0.02533805 0.05009251 0.0039891 0.01500964 0.04999238 0.0228973 0.01086795 0.03207457 0.02262842 0.02324122 0.04498845 0.0228973 0.01081126 0.06643462 0.02261626 0.04014796 0.0490337 0.0228973 0.04824119 0.04498845 0.0228973 0.0240705 0.0528137 0.0228973 0.04852318 0.05354434 0.0228973 0.01074212 0.05582785 -0.03718751 0.01070034 0.05714535 -0.03203123 0.0551818 0.03210794 0.0226435 0.05520427 0.06641745 0.02263736 0.01077097 0.06642621 -0.05175131 0.01077651 0.05542355 -0.05177623 0.01082354 0.03207957 -0.03167706 0.02690529 0.0318908 0.003158926 0.0544483 0.04446595 0.002792358 0.05516707 0.04277151 -0.03170061 0.05528706 0.0517919 -0.03209251 0.05521899 0.05003261 -0.05178236 0.05527281 0.0504871 -0.03714609 0.05517441 0.0321145 0.003137886 0.04079151 0.04214698 -0.03170794 0.05524575 0.06641703 -0.05180054 0.02670097 0.03192991 -0.03164458 0.0427789 0.04668009 0.003329038 0.04919582 0.05277645 0.004383504 0.1351002 0.06634342 0.03489726 0.1395872 -0.1070749 0.03489726 0.1352599 0.06650316 0.0228973 0.1393646 -0.1072975 0.0228973 -0.1042134 0.0665031 0.03489726 -0.1040537 0.0663433 0.0228973 -0.1064044 -0.09872865 0.0228973 -0.1074739 -0.0955435 0.03489726 -0.08488452 -0.1065307 0.03489726 -0.08807319 -0.1080445 0.0228973 -0.08829981 0.002209484 0.03489726 -0.08494991 0.001483142 0.0228973 -0.07895654 0.006766438 0.03489726 -0.07908546 0.009279906 0.0228973 -0.0858761 0.01198899 0.03489726 -0.08976686 0.008696317 0.0228973 0.1105763 0.00786966 0.03489726 0.1106875 0.008284568 0.0228973 0.1146786 0.001917719 0.0228973 0.1183175 0.00192666 0.03489726 0.1205079 0.00936073 0.0228973 0.1174253 0.01135849 0.03489726 0.1117001 -0.09779042 0.03489726 0.1104913 -0.09188514 0.0228973 0.117345 -0.09900927 0.0228973 0.1210435 -0.0932334 0.03489726 0.1176557 -0.08808535 0.0228973 0.1141239 -0.08801096 0.03489726 -0.08899736 -0.09639942 0.03489726 -0.08932542 -0.09407806 0.0228973 -0.08092945 -0.09746164 0.0228973 -0.08357298 -0.08808726 0.03489726 -0.08401751 -0.08802872 0.0228973 -0.05359303 -0.05416119 0.0228973 -0.04847675 -0.05385261 0.02536225 -0.07239544 -0.02567028 0.0228973 -0.05046188 -0.04761242 0.0228973 -0.06652325 -0.02179199 0.0228973 -0.07217663 -0.01827478 0.0228973 -0.07382875 0.03274875 0.0228973 -0.06963068 0.02866792 0.0228973 -0.06609487 0.03474038 0.0228973 -0.05396145 0.05221056 0.0228973 -0.04832953 0.04888844 0.0228973 0.07920867 -0.06940162 0.0228973 0.07790952 -0.06261968 0.0228973 0.01686424 0.04715394 0.0228973 -0.0467931 0.05537927 0.0228973 0.08378124 -0.06273347 0.0228973 0.1068921 -0.03120648 0.0228973 0.1137458 -0.03318578 0.0228973 0.02434098 0.04787391 0.0228973 0.0445134 0.04549771 0.0228973 0.04219609 0.05159974 0.0228973 0.1099984 -0.02624654 0.0228973 0.0205233 0.05316823 0.0228973 0.04960435 0.05036008 0.0228973 -0.05285763 -0.04698163 0.0326659 -0.05241948 -0.05819195 0.03306239 -0.04313057 -0.04839575 0.03458273 -0.07465118 -0.0181272 0.03330886 -0.07216131 -0.02745407 0.03252434 -0.06507641 -0.019113 0.03333932 -0.07474005 0.03600293 0.03337043 -0.06976878 0.02644675 0.03280669 -0.06564903 0.03622722 0.03299629 -0.05351799 0.05640023 0.03284996 -0.05265223 0.0471096 0.03331816 -0.04379069 0.05331206 0.03287863 0.04143023 0.05345386 0.03283643 0.04519635 0.04331839 0.03281027 0.04946249 0.05219519 0.03212016 0.01524114 0.04667395 0.03329831 0.02400887 0.04420822 0.03348046 0.02203786 0.05425786 0.03213119 0.1048575 -0.03198343 0.03268241 0.1140995 -0.03494364 0.03334552 0.1140759 -0.025608 0.03292417 0.075311 -0.06257969 0.03330737 0.0805366 -0.07108807 0.03271049 0.08455538 -0.06105464 0.03303498 -0.06509315 0.03442567 0.01082855 -0.07446819 0.03035777 0.01082861 -0.06955385 0.03724253 0.01456904 -0.06481564 0.03413748 0.01761114 -0.06633532 0.02928411 0.01064848 -0.0700075 0.02754092 0.01456904 -0.07498168 0.03076523 0.01588517 -0.07322609 0.03549933 0.01064848 -0.06641316 0.02952259 0.02248531 -0.06725978 0.03602629 0.02262783 -0.0671615 0.0276516 0.01933914 -0.07374089 0.02930796 0.02097344 -0.07281231 0.03665417 0.02065849 -0.04509317 0.05442559 0.01082861 -0.05446821 0.05035781 0.01082861 -0.04955381 0.05724257 0.0145691 -0.04481565 0.05413746 0.01761114 -0.04633527 0.0492841 0.01064848 -0.05000752 0.0475409 0.0145691 -0.05498164 0.05076527 0.01588511 -0.05322611 0.05549931 0.01064854 -0.04641306 0.04952257 0.02248525 -0.0472598 0.05602627 0.02262783 -0.04716145 0.04765158 0.01933908 -0.05374091 0.049308 0.02097344 -0.05281233 0.05665415 0.02065849 0.02521079 0.0513004 0.01082861 0.0158357 0.04723262 0.01082861 0.02075016 0.05411732 0.0145691 0.02572423 0.050893 0.01588511 0.02396863 0.04615885 0.01064848 0.02029639 0.04441565 0.0145691 0.01555824 0.04752081 0.01761114 0.01707786 0.05237412 0.01064848 0.01800239 0.04563194 0.02262783 0.0171557 0.0521357 0.02248531 0.02448344 0.05235028 0.02097344 0.02355492 0.04500406 0.02065849 0.0179041 0.05400663 0.01933908 0.05021077 0.0513004 0.01082855 0.04083573 0.04723262 0.01082855 0.04575014 0.05411732 0.0145691 0.0507242 0.05089294 0.01588511 0.04896867 0.0461589 0.01064854 0.04529637 0.04441565 0.0145691 0.04055821 0.04752081 0.01761114 0.04207789 0.05237418 0.01064854 0.04300236 0.04563194 0.02262783 0.04958522 0.04675006 0.02249461 0.04215574 0.0521357 0.02248531 0.04948335 0.05235034 0.0209735 0.04814243 0.04452639 0.01933908 0.04290413 0.05400663 0.01933908 -0.06577432 -0.01992517 0.01082849 -0.07514941 -0.02399295 0.01082861 -0.07023495 -0.0171082 0.01456898 -0.06526088 -0.02033263 0.01588517 -0.06701642 -0.02506667 0.01064848 -0.07068872 -0.02680993 0.01456904 -0.07542687 -0.02370476 0.01761108 -0.07390719 -0.01885139 0.01064848 -0.07298266 -0.02559363 0.02262783 -0.06639987 -0.02447545 0.02249461 -0.07382935 -0.01908987 0.02248525 -0.06650161 -0.0188753 0.02097356 -0.06784266 -0.02669924 0.01933908 -0.07308089 -0.01721894 0.01933908 -0.04577428 -0.0499252 0.01082855 -0.05514937 -0.05399292 0.01082867 -0.05023491 -0.04710823 0.0145691 -0.04549676 -0.05021333 0.01761114 -0.04701644 -0.0550667 0.01064848 -0.05068868 -0.0568099 0.0145691 -0.05566281 -0.05358552 0.01588511 -0.05390715 -0.04885143 0.01064848 -0.04709428 -0.05482822 0.02248525 -0.0479409 -0.04832452 0.02262783 -0.05452376 -0.04944264 0.02249461 -0.04784262 -0.05669921 0.01933908 -0.05442196 -0.05504292 0.02097344 -0.05308091 -0.04721891 0.01933908 0.0852108 -0.06319952 0.01082861 0.0758357 -0.06726729 0.01082867 0.08075016 -0.06038254 0.0145691 0.08572423 -0.06360691 0.01588517 0.08396869 -0.06834101 0.01064848 0.08029639 -0.07008427 0.01456904 0.07555824 -0.06697911 0.01761114 0.07707786 -0.0621258 0.01064848 0.07800239 -0.06886798 0.02262783 0.0771557 -0.06236428 0.02248525 0.08448344 -0.06214958 0.02097344 0.08355492 -0.06949585 0.02065849 0.0779041 -0.06049329 0.01933908 0.1129423 -0.03334492 0.009259939 0.1081042 -0.02712184 0.009259939 0.1136379 -0.02641779 0.01251357 0.1154676 -0.02753883 0.01551818 0.1160913 -0.03016191 0.01075077 0.1098845 -0.03523343 0.01488834 0.105484 -0.03128582 0.01428425 0.1049553 -0.03030478 0.01075083 0.1080024 -0.03386795 0.02262783 0.1145852 -0.03274983 0.02249461 0.1050022 -0.02997267 0.02115887 0.1091496 -0.02605444 0.01529228 0.1144834 -0.02714961 0.02097344 0.1131423 -0.03497356 0.01933914 0.1079042 -0.0254932 0.01933908</float_array>
          <technique_common>
            <accessor source="#Mesh001_001-mesh-positions-array" count="315" stride="3">
              <param name="X" type="float"/>
              <param name="Y" type="float"/>
              <param name="Z" type="float"/>
            </accessor>
          </technique_common>
        </source>
        <source id="Mesh001_001-mesh-normals">
          <float_array id="Mesh001_001-mesh-normals-array" count="1887">0.004332244 0.02436554 0.9996938 -0.04751801 -0.004462778 0.9988604 -0.0400322 -0.00172162 0.999197 0.00510329 -0.006161689 0.999968 -8.97283e-4 -0.05663537 0.9983946 -0.01020956 0.007623374 0.9999189 0.005732178 -0.004280149 0.9999745 -0.01256203 0.01306837 0.9998357 -0.02622491 0.006710827 0.9996336 -0.005487382 -0.007904946 0.9999537 -0.02302008 0.01290696 0.9996517 6.82298e-5 -0.9999998 7.43913e-4 -0.001130819 -0.9999994 -5.18744e-5 -0.005053997 0.999718 -0.02320688 -0.06116646 0.9944906 -0.08512949 0.0249536 0.9995464 0.01686179 0.06911849 0.9975895 0.006155908 -0.9481053 0.08924382 -0.3051749 -0.6819105 0.6234427 0.3825145 -0.6048066 0.7917094 -0.08605492 -0.3497501 0.8258756 0.442272 -0.1310437 0.9875339 -0.08720445 -0.004346728 0.001287579 -0.9999898 -0.1786333 0.9826886 -0.04912555 -0.9979414 -0.06412178 -0.001230299 -0.9964341 0.02841579 0.07944619 -0.8749798 0.4638697 -0.1386917 -0.8065767 0.5847032 0.08692741 -0.2040881 0.9735028 0.1031532 -0.2868447 0.9557944 0.06463223 -0.2342634 0.02043008 0.9719585 -0.1040825 0.0476464 0.9934267 -0.004208743 0.04989635 0.9987456 0.009873449 0.02372652 0.9996697 -0.9453646 -0.0469346 0.3226191 -0.008655369 0.008077681 -0.99993 -0.005382061 0.01067781 -0.9999285 1.03134e-4 -0.003125131 -0.9999951 -7.6827e-4 -0.006269752 -0.9999801 0.002751946 7.41394e-4 -0.999996 -7.39039e-4 0.004260897 -0.9999907 0.002875745 7.92899e-4 -0.9999957 -0.9999915 -0.001816868 -0.003697693 -0.9998323 0.01817494 0.002268671 -0.9998033 -0.01859956 0.006882071 -0.9999881 -0.004900157 1.5737e-4 -0.9999901 0.0042665 -0.001373946 -0.999996 -0.002769589 5.35827e-4 -0.6530838 0.7551161 -0.05728232 -0.707344 0.7068685 -0.001165747 0.9999999 6.33912e-5 -5.35626e-4 0.9999108 0.01105743 0.007497608 0.9679668 -0.247705 0.04101943 0.3840346 -0.9213486 0.06028407 -0.8931445 -0.0452758 0.4474853 -0.7282037 0.66408 -0.1694614 0.9764836 0.09512174 0.1934728 -0.6355177 0.7673022 -0.08581852 0.97792 0.09184283 0.1877163 0.9584406 0.2581377 0.1214767 -0.1749434 -0.9839074 -0.03635019 -0.9255992 -0.257542 0.2773774 0.01088684 -0.01141309 0.9998756 -2.549e-6 -0.02042871 0.9997913 -0.00724411 -0.004332721 0.9999644 0.0129702 0.007757782 0.9998858 -0.009678602 2.48006e-4 0.9999532 0.009179294 0.0123443 0.9998817 8.43675e-4 -0.05219894 0.9986364 0.01169139 -0.02724593 0.9995604 0.05931657 -0.002386808 0.9982364 0.997455 -0.05257201 -0.04816514 0.9985796 0.05326282 0.001378655 0.9968315 0.07917672 -0.007623493 0.9998711 -0.01605463 -2.75371e-4 0.9999837 -0.00289309 -0.004927814 0.998736 0.05026322 1.04785e-4 0.7073524 0.706861 -2.78438e-4 0.7007732 0.7133613 0.005697786 0.02389252 0.9996547 0.01094251 -0.009029746 0.9997569 0.02011537 -0.9962565 0.04603558 -0.07316911 -0.9766473 0.2146541 0.009146869 -0.9998787 0.01556569 6.85982e-4 -0.9963336 -0.08492451 0.01035428 -0.999923 0.01229441 -0.001687228 -0.005588889 0.3503537 -0.9366009 0.211142 -0.0178585 -0.9772923 0.01333642 0.02242344 -0.9996596 0.01333296 0.01435124 -0.9998081 0.5621945 0.8264954 0.02903103 0.5671755 0.823467 -0.01463276 0.8621715 0.5065239 -0.009686827 0.3161014 0.1529298 0.9363186 0.04659527 0.06789439 0.9966039 0.1303827 -0.05732899 0.989805 0.04978549 0.07122492 0.9962171 0.536385 0.8422299 -0.0542227 0.6117452 0.778476 0.1405103 0.8867511 0.4534258 -0.08987593 0.8703195 0.4920846 -0.01992034 0.08180803 -0.01926702 -0.9964619 0.001340687 0.005726873 -0.9999827 0.001161396 0.006305217 -0.9999795 1.92491e-4 -1 2.54974e-4 -6.23353e-4 -0.9999998 -1.76846e-4 -0.595866 -0.8013322 -0.05301326 -0.9528639 -0.1701638 0.2511864 -0.3941256 0.9185053 -0.03182888 0.9959771 -0.02552098 0.08589684 0.9775019 0.1356033 0.1615608 0.6758249 0.7356652 -0.0453611 0.7417402 0.6697615 0.03522694 -0.02209591 -0.9595907 0.2805305 -0.92217 0.07644724 0.3791548 -0.7411979 -0.669206 0.05281257 0.01035863 0.02529817 0.9996263 0.02884542 0.01724869 0.9994351 4.34398e-4 0.04768383 0.9988625 -0.002476751 0.001142621 0.9999964 0 0 1 -0.008534252 0.008534371 0.9999272 -0.020181 0.03367698 0.9992291 -0.0519728 7.1739e-4 0.9986482 -0.04815596 -5.06153e-4 0.9988397 0.9999865 0.00519526 2.78406e-4 0.9966537 -0.07827985 0.02353012 0.9982966 0.04335439 0.03904086 -0.9999967 -7.80405e-4 -0.00249058 -0.9999986 -0.00141561 9.432e-4 -0.9999976 0.00224024 -1.2618e-5 -0.9999989 -1.12986e-4 0.001493334 0.2542933 -0.9671268 -8.56541e-4 0.1831561 -0.982694 -0.02768349 0.02818632 0.03370177 -0.9990345 0.03992241 0.02407521 -0.9989128 0.02033245 0.9892964 0.1444963 0.2558644 0.9645027 -0.06533145 -0.00116533 -0.002236366 -0.9999969 5.08381e-4 -0.003143727 -0.999995 -0.001001894 0.007680237 -0.99997 0.002683043 -7.29493e-4 -0.9999962 -0.01958745 -0.0302928 -0.9993491 -0.01230847 -0.02237731 -0.9996739 -0.01995837 -0.9930425 -0.1160525 0.2125057 -0.9702866 0.1156949 -0.003472626 -0.999948 -0.009586989 -0.006782531 -0.9999514 -0.007154881 0.9951104 0.0256884 -0.09537059 0.9593654 -0.2510222 0.128865 0.9995599 0.0279091 -0.01006537 0.9997181 0.009862184 -0.02159887 0.7577657 -0.6462072 0.09059566 0.6726284 -0.7396434 -0.02233344 0.5782182 -0.8110871 0.08832657 -0.9758788 -0.02716815 0.216616 -0.9624915 -0.2609289 -0.07433915 0.3729722 -0.4057168 0.8344374 0.8742291 -0.4768525 -0.09129709 0.2439811 -0.9686731 -0.04632246 7.05214e-4 0.9999964 -0.002605736 -0.002350032 0.9999973 1.77708e-4 0.006767094 0.9999771 -1.30348e-5 -3.2405e-4 0.9999987 0.001618862 0.7158899 -0.6911991 -0.09871965 0.7359587 -0.6764702 -0.02743679 0.7074708 -0.7067236 0.005179822 -0.04337179 0.0382477 -0.9983267 -0.04112595 0.03334516 -0.9985975 0.3298463 -0.3620742 -0.8718393 -0.9298139 -0.3677418 0.01456469 -0.1675156 0.8949173 0.413596 0.6660299 0.7274653 -0.1649197 0.139483 -0.9668214 0.2140119 -0.3787825 -0.9250729 -0.02764165 -0.3577851 -0.9255708 -0.1237279 -0.9551633 -0.1096777 0.2750166 -0.961211 0.1637871 0.2219176 0.9137603 0.4046011 0.03660923 0.9813154 0.07397067 0.1776185 -0.007995784 -0.01315307 0.9998816 -0.004929125 0.01582992 0.9998626 -0.06582725 2.45398e-4 0.9978311 -3.28571e-4 -0.01528221 0.9998832 0.006459593 -0.02699774 0.9996147 -0.01347047 -0.02695024 0.9995461 -2.25708e-7 0 1 0.00628817 0.02674394 0.9996226 0.03443247 -0.001134693 0.9994064 -0.01508343 0.02800661 0.999494 -4.69843e-4 0.01535522 0.9998821 0.03857445 1.53423e-4 0.9992558 -0.9999972 -4.99659e-4 -0.002344906 -0.9999595 -0.006226062 -0.006511986 -0.9999615 0.008760929 5.41459e-4 -0.9999877 -0.004905164 8.17408e-4 -0.999996 -0.001648604 0.002310991 -5.22285e-4 -0.02799671 -0.9996079 0.04332202 -0.9978134 0.04991936 0.5774484 -0.797456 -0.1749783 0.4152838 -0.9096854 -0.003460884 0.003709554 -0.01410883 -0.9998937 0.001961886 -0.008906483 -0.9999585 -0.005216717 -0.03200882 -0.999474 0.002399682 -0.04343891 -0.9990533 -0.1155701 -0.9616792 0.2486297 -0.1152458 -0.9626418 0.2450288 -0.1190519 -0.9923961 0.03125345 -0.1203717 -0.9923558 0.02721667 -2.72852e-4 -0.001109778 -0.9999994 -0.001105725 0.002259075 -0.9999969 2.06718e-4 1 -5.61173e-6 3.8674e-4 1 -1.13122e-4 0.9999921 -0.00163877 -0.003626704 0.9999964 -7.24494e-4 -0.002633154 0.9996938 -0.0123676 0.02143895 0.9982771 0.05867451 -3.59117e-4 0.9987879 -0.0471549 0.01411181 0.9999935 0.003574967 5.57233e-4 0.9993026 -6.61782e-4 -0.03733587 -0.009421229 -0.9999551 -0.001069307 0.007914304 -0.9999687 -3.38844e-4 7.50278e-4 -0.9999492 0.01005762 -0.0115593 -0.9999332 -8.224e-5 0.2936841 -0.9431819 0.1554275 0.1526575 -0.9851829 0.07816994 -0.9911186 0.1050347 -0.08155936 -0.1678011 0.9562788 0.2395282 0.5194016 0.8544286 -0.01318848 -0.9987488 0.03291189 -0.03765231 -0.6880823 0.6808637 0.2509334 0.4465876 0.8934825 -0.04742079 0.4734904 -0.8791626 0.05366724 0.662527 -0.7279155 0.1766265 0.9995723 0.02586317 0.0136528 0.9995412 0.02360618 -0.01898133 6.67217e-4 0.9999111 0.01332175 -6.67902e-4 0.9999111 -0.01332247 -0.9998076 0.01423764 -0.01349925 -0.9953685 0.02002692 -0.09402346 -0.428924 -0.8818557 0.195844 -0.4412459 -0.8682593 0.2267775 0.003258705 -0.9922387 0.1243056 -0.002424001 -0.9998242 0.01859366 0.8156968 0.5447176 0.1947347 -0.7920382 0.5957427 0.1332904 -0.4316771 0.8850719 -0.1740764 -0.5947875 -0.7880675 -0.1586742 0.05284655 -0.9672496 0.2482649 0.9419407 -0.2334459 -0.241352 0.847 0.5309467 0.02620565 0.5987653 0.779937 -0.18215 -0.7658408 0.5998004 0.2317916 -0.9680523 -0.09157055 -0.2334305 0.1069495 -0.975951 0.1899517 0.4537414 -0.8907365 -0.02659463 0.6959899 0.6695651 0.2593852 -0.4201681 0.8614799 -0.2851514 -0.9589061 0.02727425 0.2824099 -0.5936677 -0.786581 -0.1698506 0.4638122 -0.874491 0.1419286 0.9487228 -0.2351313 -0.2112775 0.3685446 0.9145174 0.1668318 0.7981404 0.3240085 0.5079277 -0.949831 -0.3109464 0.03366816 -0.9617398 0.06838935 -0.265291 0.743556 -0.6524202 -0.1465345 0.8369796 -0.5461975 -0.03366869 0 0 -1 1.50279e-7 0 -1 3.70125e-7 0 -1 0.4309388 -0.2720601 -0.8603925 0.5820117 -0.3928697 -0.7119802 1.89738e-7 0 -1 -1.36965e-7 0 -1 -5.89224e-7 0 -1 5.40309e-7 0 -1 -8.8543e-7 0 -1 -1.86723e-7 0 -1 -9.70324e-7 0 -1 0 0 -1 1.04507e-5 0 -1 -2.33237e-7 0 -1 0 0 -1 -0.01262134 0.05463671 -0.9984266 -0.01976227 -0.003785669 -0.9997975 -0.04433023 -0.3791985 -0.924253 0 0 -1 0 0 -1 0 0 -1 2.39422e-7 0 -1 0 0 -1 0 0 -1 0 0 -1 -2.085e-7 0 -1 2.2157e-7 0 -1 0 0 -1 2.04662e-7 0 -1 0 0 -1 8.43453e-7 0 -1 5.88885e-7 0 -1 -2.57806e-7 0 -1 -0.9084247 -0.3676176 -0.1990527 0.8698419 -0.4158983 -0.2653371 0.9708654 0.04626196 0.2351173 -0.2377406 0.893217 0.381632 -0.7267175 0.6867744 0.01491951 -0.2288885 -0.7737836 0.5906516 -0.1023801 -0.9946927 -0.01023238 0.9724054 -0.02876263 0.2315177 0.9663888 0.2559688 0.02393001 -0.5434918 0.8229002 0.1656867 -0.7577297 0.6496471 -0.06168079 -0.5072062 -0.8152645 0.2794383 0.6871144 0.7068557 0.1680142 0.883508 0.4635759 -0.06716489 -0.8598239 0.5006543 0.100241 -0.9213395 0.3884082 -0.01651078 0.2472482 -0.9601318 0.1304425 0.03584289 -0.9534619 0.2993757 -0.3006048 -0.9478533 -0.1058819 0.3795449 -0.8586288 0.344532 0.9927495 0.08840149 -0.08144879 0.4783717 0.8109745 0.3368695 -0.5738902 0.8128897 -0.09930008 -0.9211965 0.2180553 0.3222561 0.934841 0.3550194 0.005807578 0.9373216 0.3482593 0.01198852 -0.6764072 0.7082028 0.202292 -0.8999045 0.4248474 -0.09837001 -0.1620344 -0.968287 0.1901712 -0.1375886 -0.9755504 0.1713796 0.2680587 0.9595461 0.08611506 -0.09069532 0.9419071 0.3233968 -0.9735869 -0.2045611 -0.1014061 -0.7950515 -0.5732957 0.1980538 0.849251 -0.5166831 0.1086807 0.7407779 -0.6704112 -0.04239219 0.2742944 0.9497945 0.1505096 0.2933208 0.946273 0.1361264 -0.9994329 -0.001007199 0.03366112 -0.8202869 -0.4429879 0.3617889 0.56293 -0.8072166 -0.1775143 0.839993 -0.5260757 0.1328772 0.8510702 0.5244548 -0.02503585 -0.8243319 0.5652759 -0.03066366 -0.9142298 0.3601819 0.1856153 -0.01910883 -0.9861472 0.1647683 0.1638876 -0.9854658 0.04469889 0.9540551 0.1827596 0.2374402 0 0 1 0.06308448 -0.004485905 0.9979981 0.02602231 0.03420269 0.9990762 0.0295816 0.03648614 0.9988963 -0.01295834 0.04153829 0.999053 -0.05694741 -0.04906398 0.9971709 -0.2080926 -0.1147085 0.9713597 -0.01481413 -0.0877394 0.9960334 0.1074241 -0.02107107 0.99399 0.0286386 -0.05871832 0.9978638 -0.009906411 -0.06538128 0.9978113 1.67001e-7 0 1 -7.47558e-7 0 1 0.05899965 0.07817244 0.9951925 0.09914427 0.03334981 0.9945141 -0.01996344 -0.06922203 0.9974015 0.1635963 0.02837783 0.9861192 0.04297387 -0.08077478 0.9958056 -0.01317888 -0.01382946 0.9998176 0.03763103 -0.01365631 0.9991984 -0.02191418 0.04828137 0.9985934 -0.03909736 0.007654726 0.9992061 0.05674088 -0.01032572 0.9983356 0.005938172 0.033948 0.999406 -0.01124387 -0.1429297 0.989669 0.002548873 -0.06842106 0.9976533 -0.1059208 -0.3423156 -0.9335957 -0.003451049 0.07762044 0.996977 -0.0577777 0.01431971 0.9982268 -0.06757903 -0.00520116 0.9977005 -1.36108e-7 0 1 -0.006188392 0.008179306 0.9999475 -0.02122122 0.02653247 0.9994227 -0.01447433 0.0223928 0.9996445 0.01121836 0.003768503 0.99993 0.009166419 0.1440671 0.9895256 0.03102034 -0.009540677 0.9994733 -0.03169131 0.03424775 0.9989109 -0.06224656 0.02914381 0.9976353 0.02206265 0.02923196 0.9993292 0.02179533 0.02920043 0.999336 0.03219473 0.01384663 0.9993858 0.03718423 0.1401383 0.9894335 0.01258355 0.008272051 0.9998866 -0.03701412 -0.01633226 0.9991813 0.01353055 -0.05742114 0.9982584 -0.04903554 -0.06387275 0.9967526 -0.05741643 -0.04718363 0.9972347 5.39546e-7 0 1 0.5524846 -0.1439406 0.8210006 -0.06555181 -0.00169605 0.9978478 -0.2765499 0.04263085 0.9600536 -0.02599722 0.01090323 0.9996026 -8.77942e-7 0 1 -0.04886692 0.1007343 0.9937126 0.02803111 -0.3532209 0.9351199 -1.01242e-4 -0.1517234 0.9884231 0.01577436 -0.3609873 0.9324373 -0.03291714 0.07992327 0.9962574 0.5419746 0.8402861 0.01352542 0.9712338 -0.2328969 -0.04963773 0.6651374 -0.6728458 0.3238376 -0.5415147 -0.8405947 0.01274484 -0.9663301 0.229366 -0.1166073 -0.6808781 0.6421303 0.3522409 -0.5700204 0.1658936 -0.8047087 0.5700154 -0.1658942 -0.8047121 -0.2035015 0.06759506 0.9767385 -0.4469138 0.8943316 -0.02095454 -0.9916366 -0.1290018 -0.003922104 -0.8769425 -0.4445789 0.1825418 0.6453744 -0.7065332 -0.2903494 -0.1533097 -0.9809253 0.1195066 0.9369981 0.3405111 -0.07801747 0.7169603 0.5261969 -0.4572579 0.788223 -0.4078615 -0.4608186 -0.4632605 -0.8354058 0.295782 -0.2854319 -0.9375314 -0.198906 -0.9536399 0.1321323 0.2703924 -0.7520936 0.5594468 -0.3483886 0.3864284 0.8751008 0.2913276 0.9386366 -0.344414 -0.01845717 0.1987578 0.9451956 -0.259038 0.9091895 0.109552 0.4017126 -0.08326691 -0.8476917 0.5239136 0.5419867 0.8402783 0.01352322 0.9712327 -0.2329022 -0.04963558 0.6651385 -0.6728447 0.3238376 -0.5415175 -0.8405929 0.01274383 -0.9663298 0.2293676 -0.1166069 -0.6808776 0.6421294 0.3522436 -0.5700154 0.1659033 -0.8047103 0.5700263 -0.1658897 -0.8047054 -0.2034969 0.0675916 0.9767397 -0.4469125 0.8943322 -0.02095705 -0.9916356 -0.12901 -0.003916621 -0.8769479 -0.4445704 0.1825367 0.6453719 -0.7065359 -0.2903483 -0.1533005 -0.9809269 0.1195049 0.9369971 0.3405151 -0.07801264 0.7169502 0.5262041 -0.4572656 0.7882175 -0.4078632 -0.4608264 -0.4632635 -0.8354008 0.2957911 -0.2854322 -0.9375311 -0.1989074 -0.9536429 0.1321297 0.2703832 -0.752089 0.5594477 -0.348397 0.3864319 0.8750928 0.2913472 0.9386376 -0.3444108 -0.01845973 0.1987509 0.9451945 -0.2590472 0.9091902 0.1095592 0.4017091 -0.08326572 -0.8476875 0.5239206 0.5415254 0.8405879 0.01274591 0.9663296 -0.2293725 -0.1165996 0.6808815 -0.6421273 0.35224 -0.5419865 -0.8402783 0.0135262 -0.9712333 0.2329002 -0.0496329 -0.6651355 0.6728467 0.3238397 -0.5700197 0.165902 -0.8047075 0.5700136 -0.1659026 -0.8047116 0.2034962 -0.06759899 0.9767394 -0.6453784 0.7065296 -0.2903492 0.1533024 0.9809271 0.1195011 -0.9370016 -0.3405029 -0.07801222 -0.7169572 -0.5261942 -0.4572659 0.4469094 -0.8943338 -0.02095425 0.991636 0.129007 -0.003922939 0.8769448 0.4445763 0.182537 0.2854359 0.9375304 -0.1989048 0.9536411 -0.1321305 0.2703891 0.7520929 -0.5594465 -0.3483906 -0.3864345 -0.8750926 0.291344 -0.7882159 0.4078636 -0.4608289 0.4632697 0.8353953 0.2957973 -0.9386363 0.3444142 -0.01846081 -0.1987553 -0.9451937 -0.2590471 -0.909189 -0.1095566 0.4017124 0.08326596 0.8476917 0.5239138 0.541527 0.8405866 0.01275378 0.9663299 -0.2293707 -0.116601 0.6808781 -0.6421302 0.3522412 -0.54199 -0.8402761 0.01352453 -0.9712316 0.2329073 -0.04963403 -0.6651338 0.6728475 0.3238412 -0.570025 0.1658907 -0.804706 0.5700305 -0.1658936 -0.8047015 0.1877464 0.2606409 0.9470046 -0.6453754 0.7065314 -0.2903517 -0.1681148 0.984939 -0.04040378 -0.912919 -0.4025033 0.06760179 -0.5310115 -0.7332705 -0.4246661 0.4469062 -0.8943354 -0.02095639 0.9916366 0.1290016 -0.003920257 0.8769493 0.4445676 0.182537 0.2854372 0.9375266 -0.1989211 0.9312866 -0.2202264 0.290182 0.7342335 -0.5287585 -0.4258119 -0.4054855 -0.8756698 0.2622669 -0.7882202 0.4078688 -0.4608167 0.4632746 0.8353948 0.2957908 0.9270547 -0.08248549 -0.3657399 -0.9386333 0.3444223 -0.01846593 0.1531277 -0.8393933 0.5215083 -0.3222386 -0.9269785 -0.1920236 -0.9091894 -0.1095512 0.401713 0.08326035 0.8476945 0.5239102 0.5415312 0.8405841 0.0127511 0.9663304 -0.2293694 -0.1165995 0.6808751 -0.6421335 0.3522411 -0.5419903 -0.8402759 0.01352947 -0.9712299 0.2329142 -0.04963243 -0.6651351 0.6728479 0.3238378 -0.5700305 0.1658821 -0.804704 0.5700095 -0.1659069 -0.8047136 0.1877392 0.2606341 0.9470079 -0.6453687 0.7065405 -0.2903442 -0.1681186 0.9849385 -0.0404033 -0.9129178 -0.4025061 0.0676015 -0.5310102 -0.7332736 -0.4246621 0.4469137 -0.8943316 -0.02095633 0.991636 0.1290065 -0.003922402 0.8769534 0.4445621 0.1825308 0.285442 0.937527 -0.1989124 0.9312877 -0.2202417 0.2901667 0.7342346 -0.5287594 -0.4258087 -0.4054936 -0.8756684 0.2622594 -0.7882229 0.4078792 -0.4608029 0.4632755 0.8353953 0.2957881 0.9270505 -0.08249568 -0.3657482 -0.9386308 0.3444292 -0.01846212 0.1531304 -0.8393891 0.5215144 -0.3222471 -0.9269767 -0.1920182 -0.9091867 -0.1095533 0.4017186 0.08326107 0.8476951 0.5239089 0.5419895 0.8402764 0.01352536 0.9712315 -0.2329077 -0.04963356 0.6651361 -0.6728463 0.3238395 -0.5415301 -0.8405849 0.01274001 -0.9663265 0.2293856 -0.1165993 -0.68088 0.6421303 0.3522376 -0.5700246 0.1658968 -0.804705 0.5700053 -0.1659133 -0.8047153 -0.1877514 -0.2606472 0.9470018 -0.4469106 0.8943331 -0.02095627 -0.9916372 -0.1289978 -0.003921568 -0.8769479 -0.4445698 0.182538 0.6453807 -0.706525 -0.2903553 0.168111 -0.9849396 -0.04040712 0.9129229 0.4024941 0.06760472 0.5310103 0.7332678 -0.4246722 0.7882146 -0.4078682 -0.4608267 -0.463271 -0.83539 0.2958097 -0.2854269 -0.9375298 -0.1989213 -0.9312829 0.2202358 0.2901868 -0.7342351 0.5287638 -0.4258025 0.4054889 0.8756691 0.262264 0.9386358 -0.344416 -0.0184549 -0.9270524 0.08249491 -0.3657438 0.3222428 0.9269778 -0.1920205 0.9091907 0.1095481 0.4017108 -0.08326083 -0.8476977 0.5239048 -0.1531245 0.8393941 0.521508 0.5415269 0.840587 0.01273983 0.9663302 -0.2293689 -0.1166016 0.6808797 -0.6421305 0.3522378 -0.5419836 -0.8402802 0.01352781 -0.9712328 0.2329025 -0.04963117 -0.6651394 0.6728449 0.3238354 -0.5700248 0.1659027 -0.8047038 0.5700061 -0.1659016 -0.8047173 0.2035 -0.06759059 0.9767392 -0.6453777 0.7065312 -0.2903469 0.153307 0.9809259 0.1195059 -0.9370006 -0.3405053 -0.07801467 -0.7169527 -0.5261953 -0.4572718 0.4469189 -0.8943291 -0.02095532 0.9916351 0.1290142 -0.003921747 0.8769444 0.4445777 0.1825352 0.285431 0.9375312 -0.1989079 0.9536403 -0.1321254 0.2703944 0.7520934 -0.5594465 -0.3483895 -0.3864364 -0.8750947 0.2913354 -0.7882165 0.4078631 -0.4608279 0.463267 0.8353925 0.295809 -0.9386367 0.3444132 -0.01846033 -0.1987585 -0.9451934 -0.2590457 -0.9091891 -0.1095616 0.4017109 0.08326297 0.8476898 0.5239174 0.7585219 0.6077395 -0.2351539 0.7249948 -0.5589818 0.4023952 -0.8128555 0.5184144 0.265542 0.6759511 -0.7265316 0.1234588 -0.7111712 0.703018 -0.001140773 -0.6553856 -0.7473248 -0.1094326 -0.001347661 0.4252464 -0.9050767 0.1543222 -0.5401604 -0.8272916 -0.05877232 0.2606856 0.9636331 0.2153491 0.9506064 0.2235448 -0.4541927 0.4157097 -0.7879686 -0.8265472 0.4845061 -0.2864847 -0.1678735 0.9855291 -0.02347427 -0.8327275 -0.5387817 0.1275902 -0.1388417 -0.7753901 -0.6160302 0.6924176 -0.7214564 0.007653892 0.6820058 0.650724 0.3338059 0.682049 0.6507464 0.3336741 0.6820541 0.650762 0.3336332 0.9313684 0.3221327 0.1696572 0.2496771 0.9680311 -0.02402561 0.9607865 -0.2039329 0.1878854 0.7202804 -0.4817693 -0.4990937 -0.4279933 -0.8282693 0.3616517 -0.6719172 -0.7347313 0.09325909 -0.8566409 0.4923692 -0.1540752 -0.7489241 0.5848244 -0.311598 0.2304134 0.9710023 -0.06375139 0.9270535 -0.08250159 -0.3657393 0.1531264 -0.839395 0.521506 -0.5133116 -0.6193721 -0.594045 -0.112215 0.4355407 0.8931472</float_array>
          <technique_common>
            <accessor source="#Mesh001_001-mesh-normals-array" count="629" stride="3">
              <param name="X" type="float"/>
              <param name="Y" type="float"/>
              <param name="Z" type="float"/>
            </accessor>
          </technique_common>
        </source>
        <vertices id="Mesh001_001-mesh-vertices">
          <input semantic="POSITION" source="#Mesh001_001-mesh-positions"/>
        </vertices>
        <triangles material="Mesh001_001-material" count="658">
          <input semantic="VERTEX" source="#Mesh001_001-mesh-vertices" offset="0"/>
          <input semantic="NORMAL" source="#Mesh001_001-mesh-normals" offset="1"/>
          <p>3 0 4 0 5 0 3 1 2 1 4 1 3 2 30 2 2 2 9 3 5 3 2 3 9 4 2 4 30 4 6 5 3 5 5 5 6 6 5 6 9 6 10 7 3 7 6 7 10 8 6 8 7 8 8 9 6 9 9 9 8 10 10 10 7 10 9 11 30 11 11 11 11 12 30 12 16 12 24 13 21 13 27 13 21 14 19 14 27 14 10 15 8 15 19 15 19 16 8 16 27 16 19 17 18 17 28 17 18 18 22 18 28 18 28 19 22 19 29 19 22 20 12 20 29 20 29 21 12 21 14 21 28 22 15 22 19 22 23 23 17 23 13 23 26 24 20 24 24 24 24 25 20 25 21 25 26 26 22 26 20 26 25 27 22 27 26 27 25 28 23 28 22 28 25 29 17 29 23 29 20 30 18 30 21 30 20 31 22 31 18 31 13 32 12 32 23 32 12 33 22 33 23 33 21 34 18 34 19 34 29 35 14 35 15 35 29 36 15 36 28 36 25 37 11 37 17 37 17 38 11 38 16 38 25 39 26 39 11 39 24 40 27 40 26 40 26 41 27 41 11 41 16 42 12 42 17 42 12 43 13 43 17 43 16 44 14 44 12 44 16 45 30 45 14 45 14 46 3 46 15 46 30 47 3 47 14 47 15 48 10 48 19 48 3 49 10 49 15 49 27 50 9 50 11 50 8 51 9 51 27 51 6 52 0 52 7 52 7 53 0 53 8 53 0 54 1 54 8 54 8 55 1 55 6 55 1 56 0 56 6 56 5 57 32 57 2 57 2 58 32 58 4 58 32 59 31 59 4 59 4 60 31 60 5 60 31 61 32 61 5 61 43 62 37 62 35 62 42 63 36 63 37 63 38 64 37 64 43 64 38 65 42 65 37 65 39 66 38 66 43 66 40 67 42 67 38 67 41 68 39 68 43 68 41 69 40 69 39 69 41 70 42 70 40 70 57 71 46 71 48 71 48 72 46 72 47 72 46 73 45 73 47 73 44 74 42 74 45 74 42 75 41 75 45 75 41 76 47 76 45 76 49 77 42 77 44 77 36 78 42 78 49 78 35 79 36 79 54 79 54 80 36 80 49 80 51 81 53 81 50 81 53 82 52 82 50 82 51 83 43 83 53 83 53 84 35 84 54 84 43 85 35 85 53 85 53 86 54 86 49 86 55 87 53 87 49 87 55 88 44 88 45 88 55 89 49 89 44 89 45 90 56 90 55 90 46 91 56 91 45 91 55 92 56 92 53 92 52 93 53 93 58 93 58 94 46 94 57 94 53 95 56 95 58 95 58 96 56 96 46 96 57 97 48 97 58 97 48 98 59 98 58 98 50 99 58 99 59 99 52 100 58 100 50 100 59 101 51 101 50 101 59 102 48 102 51 102 48 103 47 103 51 103 41 104 43 104 47 104 47 105 43 105 51 105 38 106 34 106 40 106 34 107 33 107 40 107 40 108 33 108 39 108 39 109 34 109 38 109 33 110 34 110 39 110 37 111 60 111 35 111 60 112 61 112 35 112 35 113 61 113 36 113 36 114 61 114 37 114 61 115 60 115 37 115 65 116 64 116 69 116 68 117 69 117 64 117 71 118 65 118 69 118 66 119 68 119 65 119 67 120 66 120 65 120 67 121 65 121 71 121 72 122 68 122 66 122 70 123 72 123 67 123 70 124 67 124 71 124 73 125 69 125 74 125 69 126 68 126 74 126 68 127 79 127 74 127 76 128 78 128 75 128 77 129 70 129 78 129 78 130 71 130 75 130 70 131 71 131 78 131 92 132 70 132 77 132 72 133 70 133 92 133 74 134 85 134 73 134 73 135 85 135 86 135 74 136 80 136 85 136 79 137 80 137 74 137 81 138 82 138 87 138 82 139 75 139 87 139 84 140 76 140 82 140 82 141 76 141 75 141 92 142 78 142 83 142 92 143 77 143 78 143 78 144 93 144 83 144 78 145 88 145 93 145 78 146 76 146 88 146 76 147 84 147 88 147 85 148 80 148 86 148 80 149 89 149 86 149 89 150 87 150 86 150 81 151 87 151 89 151 82 152 88 152 84 152 88 153 82 153 89 153 89 154 82 154 81 154 83 155 93 155 92 155 93 156 90 156 92 156 89 157 91 157 88 157 88 158 91 158 93 158 91 159 89 159 80 159 75 160 86 160 87 160 75 161 71 161 86 161 86 162 69 162 73 162 71 163 69 163 86 163 79 164 92 164 90 164 79 165 68 165 92 165 68 166 72 166 92 166 93 167 79 167 90 167 80 168 79 168 93 168 91 169 80 169 93 169 64 170 62 170 68 170 62 171 63 171 68 171 68 172 63 172 65 172 63 173 62 173 65 173 65 174 62 174 64 174 67 175 95 175 66 175 95 176 94 176 66 176 66 177 94 177 72 177 72 178 94 178 67 178 94 179 95 179 67 179 100 180 98 180 99 180 101 181 98 181 104 181 101 182 99 182 98 182 102 183 99 183 108 183 102 184 100 184 99 184 103 185 102 185 108 185 102 186 104 186 100 186 102 187 101 187 104 187 105 188 103 188 108 188 109 189 102 189 105 189 109 190 101 190 102 190 109 191 105 191 108 191 106 192 110 192 111 192 107 193 110 193 106 193 101 194 110 194 107 194 99 195 107 195 112 195 99 196 101 196 107 196 114 197 119 197 113 197 115 198 114 198 120 198 120 199 114 199 122 199 114 200 113 200 122 200 120 201 112 201 107 201 122 202 112 202 120 202 116 203 120 203 107 203 115 204 120 204 116 204 116 205 106 205 118 205 116 206 107 206 106 206 118 207 106 207 117 207 117 208 106 208 111 208 111 209 121 209 117 209 110 210 121 210 111 210 110 211 109 211 121 211 101 212 109 212 110 212 121 213 118 213 117 213 116 214 118 214 121 214 114 215 115 215 116 215 108 216 119 216 114 216 109 217 114 217 116 217 109 218 116 218 121 218 109 219 108 219 114 219 122 220 113 220 112 220 108 221 113 221 119 221 108 222 99 222 113 222 113 223 99 223 112 223 98 224 97 224 104 224 96 225 97 225 98 225 104 226 97 226 100 226 97 227 96 227 100 227 100 228 96 228 98 228 105 229 124 229 103 229 124 230 123 230 103 230 103 231 123 231 102 231 102 232 124 232 105 232 123 233 124 233 102 233 125 234 126 234 127 234 127 235 126 235 128 235 129 236 125 236 127 236 129 237 127 237 130 237 131 238 129 238 130 238 132 239 129 239 131 239 133 240 132 240 131 240 133 241 131 241 134 241 128 242 133 242 134 242 126 243 133 243 128 243 140 244 135 244 136 244 136 245 137 245 138 245 135 246 137 246 136 246 137 247 139 247 138 247 138 248 139 248 140 248 139 249 135 249 140 249 142 250 141 250 143 250 141 251 144 251 143 251 143 252 144 252 145 252 144 253 146 253 145 253 145 254 146 254 142 254 146 255 141 255 142 255 148 256 147 256 149 256 147 257 150 257 149 257 149 258 150 258 151 258 150 259 152 259 151 259 151 260 152 260 148 260 152 261 147 261 148 261 154 262 153 262 155 262 153 263 133 263 155 263 155 264 156 264 157 264 133 265 156 265 155 265 157 266 153 266 154 266 156 267 153 267 157 267 131 268 155 268 134 268 154 269 155 269 131 269 131 270 157 270 154 270 157 268 158 268 155 268 158 271 159 271 155 271 155 272 159 272 134 272 157 268 160 268 158 268 131 268 160 268 157 268 158 268 160 268 161 268 160 268 162 268 161 268 131 273 136 273 160 273 131 274 140 274 136 274 160 275 136 275 163 275 136 276 138 276 163 276 163 277 138 277 162 277 131 278 130 278 140 278 164 279 165 279 138 279 140 268 164 268 138 268 130 280 164 280 140 280 138 268 166 268 162 268 165 281 166 281 138 281 164 268 130 268 166 268 167 268 168 268 166 268 130 268 167 268 166 268 166 282 168 282 162 282 130 283 172 283 167 283 159 284 169 284 134 284 159 285 170 285 169 285 161 286 170 286 159 286 169 287 149 287 134 287 169 268 148 268 149 268 169 288 151 288 148 288 173 268 151 268 169 268 149 289 128 289 134 289 151 290 128 290 149 290 168 291 171 291 162 291 162 268 171 268 161 268 172 292 171 292 168 292 161 293 171 293 170 293 171 268 176 268 170 268 172 268 180 268 171 268 174 268 175 268 173 268 170 268 174 268 173 268 173 268 175 268 151 268 151 294 175 294 128 294 176 268 178 268 177 268 176 295 177 295 170 295 170 296 177 296 174 296 174 268 177 268 179 268 180 268 178 268 176 268 179 297 142 297 143 297 177 298 142 298 179 298 181 268 142 268 177 268 179 299 143 299 175 299 143 300 145 300 175 300 175 268 145 268 128 268 145 268 127 268 128 268 181 268 127 268 142 268 178 301 127 301 181 301 142 268 127 268 145 268 130 268 127 268 172 268 172 268 127 268 180 268 180 268 127 268 178 268 159 302 182 302 161 302 161 303 183 303 158 303 182 304 183 304 161 304 183 305 159 305 158 305 183 306 184 306 159 306 159 307 184 307 182 307 187 308 185 308 163 308 163 309 185 309 160 309 185 310 186 310 160 310 160 311 186 311 162 311 186 312 187 312 162 312 162 313 187 313 163 313 164 314 189 314 165 314 188 315 189 315 164 315 165 316 189 316 166 316 189 317 190 317 166 317 166 318 190 318 164 318 190 319 188 319 164 319 193 320 191 320 172 320 172 321 191 321 167 321 191 322 192 322 167 322 167 323 192 323 168 323 192 324 193 324 168 324 168 325 193 325 172 325 178 326 194 326 177 326 194 327 195 327 177 327 177 328 195 328 181 328 195 329 196 329 181 329 181 330 196 330 178 330 196 331 194 331 178 331 197 332 198 332 171 332 171 333 198 333 176 333 198 334 199 334 176 334 176 335 199 335 180 335 180 336 197 336 171 336 199 337 197 337 180 337 174 338 201 338 175 338 200 339 201 339 174 339 201 340 202 340 175 340 175 341 202 341 179 341 202 342 200 342 179 342 179 343 200 343 174 343 203 344 204 344 169 344 169 345 205 345 173 345 204 346 205 346 169 346 173 347 205 347 170 347 205 348 203 348 170 348 170 349 203 349 169 349 153 120 132 120 133 120 156 350 132 350 153 350 183 351 156 351 133 351 186 352 156 352 183 352 186 353 183 353 182 353 186 354 132 354 156 354 187 355 186 355 182 355 187 356 182 356 184 356 135 357 186 357 185 357 135 358 132 358 186 358 137 359 135 359 185 359 137 360 185 360 187 360 129 361 132 361 135 361 129 362 135 362 139 362 189 363 139 363 137 363 189 364 129 364 139 364 188 365 129 365 189 365 189 366 137 366 187 366 192 367 188 367 190 367 192 368 190 368 189 368 191 369 129 369 188 369 191 370 188 370 192 370 192 371 189 371 187 371 193 372 192 372 187 372 204 373 183 373 133 373 204 374 184 374 183 374 203 375 184 375 204 375 193 376 129 376 191 376 147 377 204 377 133 377 152 378 204 378 147 378 152 379 205 379 204 379 126 380 150 380 147 380 126 120 147 120 133 120 197 381 193 381 187 381 197 382 187 382 184 382 198 383 197 383 184 383 198 384 184 384 203 384 199 385 193 385 197 385 200 386 203 386 205 386 200 387 205 387 152 387 201 388 200 388 152 388 201 389 152 389 150 389 201 390 150 390 126 390 195 391 198 391 203 391 195 392 199 392 198 392 195 393 203 393 200 393 194 394 199 394 195 394 141 395 200 395 202 395 141 396 202 396 144 396 141 397 195 397 200 397 125 398 146 398 144 398 125 399 144 399 202 399 125 400 201 400 126 400 125 401 202 401 201 401 125 402 195 402 141 402 125 403 141 403 146 403 125 404 196 404 195 404 125 405 194 405 196 405 125 406 129 406 193 406 125 407 193 407 199 407 125 408 199 408 194 408 209 409 206 409 208 409 210 410 206 410 209 410 210 411 209 411 211 411 212 412 207 412 211 412 213 413 207 413 212 413 213 414 212 414 208 414 210 415 208 415 206 415 207 416 213 416 211 416 218 417 217 417 214 417 211 418 214 418 210 418 214 419 215 419 210 419 210 420 215 420 208 420 208 421 215 421 213 421 215 422 218 422 213 422 213 423 218 423 211 423 218 424 214 424 211 424 211 425 209 425 216 425 212 426 211 426 216 426 217 427 212 427 216 427 212 428 217 428 218 428 208 429 212 429 218 429 209 430 208 430 218 430 209 431 214 431 216 431 209 432 218 432 215 432 214 433 209 433 215 433 216 434 214 434 217 434 222 435 219 435 221 435 223 436 219 436 222 436 223 437 222 437 224 437 225 438 220 438 224 438 226 439 220 439 225 439 226 440 225 440 221 440 223 441 221 441 219 441 220 442 226 442 224 442 231 443 230 443 227 443 224 444 227 444 223 444 227 445 228 445 223 445 223 446 228 446 221 446 221 447 228 447 226 447 228 448 231 448 226 448 226 449 231 449 224 449 231 450 227 450 224 450 224 451 222 451 229 451 225 452 224 452 229 452 230 453 225 453 229 453 225 454 230 454 231 454 221 455 225 455 231 455 222 456 221 456 231 456 222 457 227 457 229 457 222 458 231 458 228 458 227 459 222 459 228 459 229 460 227 460 230 460 235 461 232 461 234 461 236 462 232 462 235 462 236 463 235 463 237 463 238 464 233 464 237 464 239 465 233 465 238 465 239 466 238 466 234 466 236 467 234 467 232 467 233 468 239 468 237 468 242 469 241 469 243 469 237 470 240 470 236 470 240 471 243 471 236 471 236 472 243 472 234 472 243 473 241 473 234 473 234 474 241 474 239 474 241 475 240 475 239 475 239 476 240 476 237 476 242 477 235 477 244 477 235 478 242 478 243 478 237 479 235 479 243 479 238 480 237 480 243 480 234 481 238 481 244 481 235 482 234 482 244 482 238 483 241 483 244 483 238 484 243 484 240 484 241 485 238 485 240 485 244 486 241 486 242 486 248 487 245 487 247 487 249 488 245 488 248 488 249 489 248 489 250 489 251 490 246 490 250 490 252 491 246 491 251 491 252 492 251 492 247 492 249 493 247 493 245 493 246 494 252 494 250 494 256 495 255 495 254 495 250 496 253 496 249 496 253 497 254 497 249 497 249 498 254 498 247 498 254 499 255 499 247 499 247 500 255 500 252 500 255 501 253 501 252 501 252 502 253 502 250 502 256 503 248 503 258 503 248 504 256 504 257 504 250 505 248 505 257 505 251 506 250 506 257 506 247 507 251 507 258 507 248 508 247 508 258 508 256 509 254 509 257 509 251 510 255 510 258 510 257 511 254 511 253 511 251 512 257 512 253 512 255 513 251 513 253 513 258 514 255 514 256 514 262 515 259 515 261 515 263 516 259 516 262 516 263 517 262 517 264 517 265 518 260 518 264 518 266 519 260 519 265 519 266 520 265 520 261 520 263 521 261 521 259 521 260 522 266 522 264 522 270 523 269 523 268 523 264 524 267 524 263 524 267 525 268 525 263 525 263 526 268 526 261 526 268 527 269 527 261 527 261 528 269 528 266 528 269 529 267 529 266 529 266 530 267 530 264 530 270 531 262 531 272 531 262 532 270 532 271 532 264 533 262 533 271 533 265 534 264 534 271 534 261 535 265 535 272 535 262 536 261 536 272 536 270 537 268 537 271 537 265 538 269 538 272 538 271 539 268 539 267 539 265 540 271 540 267 540 269 541 265 541 267 541 272 542 269 542 270 542 276 543 273 543 275 543 277 544 273 544 276 544 277 545 276 545 278 545 279 546 274 546 278 546 280 547 274 547 279 547 280 548 279 548 275 548 277 549 275 549 273 549 274 550 280 550 278 550 283 551 285 551 281 551 278 552 281 552 277 552 281 553 282 553 277 553 277 554 282 554 275 554 275 555 282 555 280 555 282 556 283 556 280 556 280 557 283 557 278 557 283 558 281 558 278 558 278 559 276 559 284 559 279 560 278 560 284 560 285 561 279 561 284 561 279 562 285 562 286 562 275 563 279 563 286 563 276 564 275 564 286 564 276 565 281 565 284 565 285 566 283 566 286 566 276 567 286 567 282 567 281 568 276 568 282 568 284 569 281 569 285 569 286 570 283 570 282 570 290 571 287 571 289 571 291 572 287 572 290 572 291 573 290 573 292 573 293 574 288 574 292 574 294 575 288 575 293 575 294 576 293 576 289 576 291 577 289 577 287 577 288 578 294 578 292 578 297 579 296 579 298 579 292 580 295 580 291 580 295 581 298 581 291 581 291 582 298 582 289 582 298 583 296 583 289 583 289 584 296 584 294 584 296 585 295 585 294 585 294 586 295 586 292 586 297 587 290 587 299 587 290 588 297 588 298 588 292 589 290 589 298 589 293 590 292 590 298 590 289 591 293 591 299 591 290 592 289 592 299 592 293 593 296 593 299 593 293 594 298 594 295 594 296 595 293 595 295 595 299 596 296 596 297 596 304 597 302 597 303 597 304 598 303 598 305 598 307 599 306 599 311 599 300 600 304 600 305 600 301 601 307 601 311 601 307 602 305 602 306 602 300 603 302 603 304 603 307 604 301 604 305 604 312 605 310 605 309 605 302 606 311 606 303 606 300 607 311 607 302 607 305 608 308 608 300 608 308 609 309 609 300 609 300 610 309 610 311 610 309 611 310 611 311 611 311 612 310 612 301 612 310 613 308 614 301 615 301 616 308 616 305 616 312 617 303 617 314 617 303 618 312 618 313 618 305 619 303 619 313 619 310 620 305 620 313 620 306 621 305 621 310 621 306 622 310 622 314 622 311 623 306 623 314 623 303 624 311 624 314 624 312 625 309 625 313 625 313 626 309 626 308 626 310 627 313 627 308 627 314 628 310 628 312 628</p>
        </triangles>
      </mesh>
    </geometry>
  </library_geometries>
  <library_visual_scenes>
    <visual_scene id="Scene" name="Scene">
      <node id="Light" name="Light" type="NODE">
        <matrix sid="transform">-0.2908648 -0.7711008 0.5663932 4.076245 0.9551711 -0.1998834 0.2183913 1.005454 -0.05518911 0.6045247 0.7946723 5.903862 0 0 0 1</matrix>
        <instance_light url="#Light-light"/>
      </node>
      <node id="Camera" name="Camera" type="NODE">
        <matrix sid="transform">0.6859207 -0.3240135 0.6515582 7.358891 0.7276763 0.3054209 -0.6141704 -6.925791 -4.01133e-9 0.8953956 0.4452714 4.958309 0 0 0 1</matrix>
        <instance_camera url="#Camera-camera"/>
      </node>
      <node id="node0" name="node0" type="NODE">
        <matrix sid="transform">-1 0 -1.50996e-7 0 0 1 0 0 1.50996e-7 0 -1 0 0 0 0 1</matrix>
        <instance_geometry url="#Mesh001_001-mesh" name="node0">
          <bind_material>
            <technique_common>
              <instance_material symbol="Mesh001_001-material" target="#Mesh001_001-material"/>
            </technique_common>
          </bind_material>
        </instance_geometry>
      </node>
    </visual_scene>
  </library_visual_scenes>
  <scene>
    <instance_visual_scene url="#Scene"/>
  </scene>
</COLLADA>