<?xml version="1.0" encoding="utf-8"?>
<COLLADA xmlns="http://www.collada.org/2005/11/COLLADASchema" version="1.4.1" xmlns:xsi="http://www.w3.org/2001/XMLSchema-instance">
  <asset>
    <contributor>
      <author>Blender User</author>
      <authoring_tool>Blender 4.4.3 commit date:2025-04-29, commit time:14:09, hash:802179c51ccc</authoring_tool>
    </contributor>
    <created>2025-08-26T11:10:33</created>
    <modified>2025-08-26T11:10:33</modified>
    <unit name="meter" meter="1"/>
    <up_axis>Z_UP</up_axis>
  </asset>
  <library_effects>
    <effect id="Mesh-effect">
      <profile_COMMON>
        <technique sid="common">
          <lambert>
            <emission>
              <color sid="emission">0 0 0 1</color>
            </emission>
            <diffuse>
              <color sid="diffuse">0.6784314 0.709804 0.7411765 1</color>
            </diffuse>
            <index_of_refraction>
              <float sid="ior">1.5</float>
            </index_of_refraction>
          </lambert>
        </technique>
      </profile_COMMON>
    </effect>
  </library_effects>
  <library_images/>
  <library_materials>
    <material id="Mesh-material" name="Mesh">
      <instance_effect url="#Mesh-effect"/>
    </material>
  </library_materials>
  <library_geometries>
    <geometry id="Mesh-mesh" name="Mesh">
      <mesh>
        <source id="Mesh-mesh-positions">
          <float_array id="Mesh-mesh-positions-array" count="1791">0.08978658 0.01063191 0.007049441 -0.02205592 0.03136098 -0.04098647 -0.01430881 0.02001923 -0.03893876 -0.01870369 0.004626274 -0.03940767 -0.04094427 -5.3374e-5 -0.03960204 -0.05119508 0.01802873 -0.04150784 -0.04542762 0.03091877 -0.04169011 0.07694888 -0.02657663 0.002747774 0.06335955 -0.04705148 0.002733111 0.06573295 -0.03810167 0.00263822 0.03952533 -0.02865022 0.002976179 0.03848218 0.04002541 0.002477705 0.07129526 0.01876062 0.002492725 0.06732225 0.02261984 0.002617597 0.08506196 0.001681029 0.002500653 0.006334543 -0.04472374 0.002984702 0.0196824 -0.05170965 0.002511084 -0.0675258 -0.001050949 -0.01841002 -0.07342225 -0.005964934 -0.01837617 -0.08125752 -0.004604876 -0.0179395 -0.08197337 0.005008161 -0.01837193 -0.07150906 0.01003473 -0.01799142 0.02334374 0.03420746 0.00292313 0.01957601 0.03901165 0.003218472 0.0255478 0.03767555 0.003574013 -8.62367e-4 0.02251279 0.00231266 0.01531606 0.01695227 0.001467049 0.02279227 0.02185761 0.002001583 -0.01134723 -0.00769931 0.002260804 -0.002251565 0.02655774 -0.006707787 -0.001351535 0.02275621 -0.006234943 -0.008739113 -0.01046758 -0.006265699 -0.01179409 -0.007769346 -0.006438255 0.009089946 -0.02459073 0.01208174 -0.009816229 -0.02393829 0.01205015 -0.0142281 -0.009240746 0.01212143 -0.002762496 0.002077043 0.01210087 0.01363813 -0.006303548 0.01210767 0.01226258 0.006084978 0.01494657 0.02586144 -0.001569092 0.01517087 0.03567165 0.01009804 0.01535761 0.02943593 0.01933336 0.01506209 0.01426851 0.01679599 0.0149995 0.01831704 0.02159488 0.01155614 0.009954273 0.02878034 0.008809626 0.00924468 0.03059178 0.006059944 0.004491508 0.02968478 0.005755007 -0.06765931 -0.001966178 0.003993928 -0.0651009 -0.003058254 0.01373696 -0.06797856 9.4285e-4 0.01373732 -0.0702542 -0.002852499 0.01373744 0.006384313 0.02458828 0.01373803 0.006569325 0.02734225 0.003993868 0.008863031 0.0287528 0.01373767 0.004116535 0.02875626 0.01373773 -0.06592607 -0.004622399 -0.005223691 -0.0707668 -1.23605e-4 0.007033228 0.003469705 0.02570569 0.008978247 -0.01280981 0.03733944 0.006137728 -0.007417678 0.03878182 0.006138145 -0.0113241 0.04078614 0.006137371 -0.01051563 0.03855389 -0.003605961 -0.06368178 0.009280145 0.006137132 -0.06253719 0.005387723 0.006136953 -0.05903756 0.008411705 0.006137847 -0.06184965 0.007710516 -0.003605961 -0.01286059 0.04109776 -0.004468262 -0.008498907 0.03676491 -0.005350112 -1.38461e-4 0.04087477 -0.004225432 0.004894912 0.03897619 -0.004829347 -0.0130918 -0.05830979 -0.001201689 -0.06263536 -0.01232671 1.04756e-4 -0.05675351 0.02849906 0.01063865 -0.06161797 0.02239781 0.00895065 -0.06244069 0.01130515 -0.00434339 -0.07345545 0.01028442 -0.001084625 -0.03564959 -0.01511871 -0.005212664 -0.02343809 -0.03347444 -0.005101323 -0.0370469 -0.0201621 -0.005417466 -0.05324494 -0.009998202 -0.005089998 -0.04978126 -0.01500171 -0.005228698 -0.04906529 -0.008542716 -0.004886567 -0.06049567 -0.0131793 -0.005127072 -0.01651513 -0.02856343 -0.005371332 -0.011931 -0.05173712 -0.004728138 -0.01864939 -0.03516739 -0.005103826 -0.0792731 -0.01523292 -0.005455613 -0.08242392 -0.02890151 -0.003948271 -0.05885565 0.01650488 -0.005363941 -0.05992192 0.01403552 0.01568889 -0.01926547 -0.007371425 0.01567673 -0.01717901 -0.01063257 0.009749054 -0.01471257 0.03998714 -6.97847e-4 0.07655632 -0.03208827 0.009637176 0.07680439 -0.03172171 0.002491116 0.0797038 -0.03029602 0.002486765 0.0799151 -0.02941805 0.009637415 0.03461271 0.03932231 0.002486765 0.0369054 0.04110002 0.009637534 0.03314864 0.04209434 0.009637534 0.03292351 0.04435008 0.002707064 0.01091557 0.01385062 0.01064962 0.01805412 0.03192198 0.006248712 0.02502453 0.03049552 0.006030023 0.02300935 0.04486888 0.006180465 0.07925963 -0.03249591 0.007967412 0.03320163 0.03862977 0.007050096 0.03352957 0.0438503 0.005629658 0.08755636 0.004889488 0.00560683 0.03750652 0.03860175 0.005581676 0.04596692 0.03983688 0.004025757 0.07266062 0.02936381 0.005670011 0.03680497 0.04362761 0.006154119 0.0385881 0.04470056 0.005801856 0.0393148 -0.02792757 0.005272388 0.06726831 -0.0486539 0.005654096 0.02878868 -0.0561524 0.006022036 0.022363 -0.00947684 0.006381452 0.02951955 -0.0200001 0.006466209 0.049322 -0.01470786 0.006346523 0.03585505 0.006558477 0.008092105 0.02519166 -0.05295258 0.003462493 0.01481992 0.03929233 0.006253242 0.01773107 0.03808265 0.00448668 0.01758849 -0.04183614 0.002643525 0.009408295 -0.05443388 0.00628364 0.01136088 -0.0517624 0.003386914 0.01892381 -0.05462974 0.00623542 0.01860469 -0.04801416 0.00448668 0.01777678 -0.04216086 0.006606638 0.01174765 -0.04481112 0.003941237 0.008521914 -0.04437673 0.006638586 0.08720296 -0.0191729 0.006148338 0.07779598 -0.02712661 0.006044328 0.07619851 -0.02860373 0.009636819 0.07292866 0.02828145 0.01672959 0.06807672 -0.04785317 0.01673209 8.08588e-4 0.04718381 0.01675462 -0.01150554 -0.05829608 0.01672792 0.0880075 0.003690659 0.01673465 -0.08920133 -0.01403552 -0.007623493 -0.08536803 -0.009649336 -0.007839381 0.06417816 -0.04321742 0.01675856 0.06678545 -0.04490762 0.002486765 0.07180583 -0.0458014 0.002521932 0.06764638 -0.03802996 0.01676183 0.07147794 -0.03934323 0.00273931 0.06785446 0.02410042 0.01674908 0.07691675 0.02321559 0.01673531 0.07573634 0.01954746 0.002639532 0.07521808 0.02760124 0.002656519 6.646e-4 0.04153639 0.01676332 0.008662343 0.04569935 0.0167284 0.004181563 0.04459607 4.88876e-4 -0.08353859 -0.0177595 0.01676726 -0.08352959 -0.01627421 -0.008584499 -0.08164983 -0.01073175 0.01676934 -0.08950167 -0.01650357 0.0167458 -0.01038771 -0.05771309 -0.007874548 -0.002828478 -0.0550636 0.01675027 -0.004951894 -0.05864262 -0.007746338 -0.007989048 -0.050884 0.01677441 -0.006921648 -0.05303412 -0.008363187 0.08388942 5.16802e-4 0.01675117 0.08993399 -0.002240121 0.01673281 0.08837842 8.04585e-4 0.002417743 -0.08415156 -0.03575307 0.01674747 -0.08206224 -0.03331285 0.01674413 -0.08462303 -0.03293985 0.007845401 -0.0868799 -0.03080826 0.01671487 -6.07171e-4 0.04699236 -0.002535581 0.008522689 0.04091095 -0.004232347 0.009593784 0.04655075 -0.002159297 -0.0117883 -0.05232346 -5.74899e-4 -0.08776712 -0.008224368 0.01672542 -0.08946108 -0.01778817 -0.001959145 0.09518378 -0.006130099 -0.01887691 0.09352648 0.007135689 -0.0187599 0.09959489 -3.13048e-4 -0.001949667 0.1037113 0.006112217 -0.01822036 0.09414255 0.002438485 -0.002435505 0.07012909 0.04341566 -0.01884227 0.06318491 0.04682797 -0.002681255 0.05608844 0.04843485 -0.01825171 0.06256973 0.0522139 -0.01811319 0.06798768 0.05167812 -0.002089202 -0.07232326 5.52781e-5 -0.001949667 -0.07777559 0.002806723 -0.002435505 0.07248473 0.04425674 -0.002126574 0.05760216 0.05185198 -0.01612061 0.1037656 -0.004466116 -0.00141853 0.1059988 0.002156376 -0.001257002 0.1027377 0.007575809 -0.001344561 0.09664529 -0.007835924 -0.01621532 0.09723478 -0.008091688 -0.001123607 0.09463083 0.009807467 -0.001339614 0.0692622 0.05674928 -0.00211358 0.06345838 0.05832362 -0.001259207 -0.06698471 -0.003213047 -0.008575797 -0.07915097 0.009748041 -0.005294919 0.04759937 -0.01870429 0.001489758 0.0386812 -0.02252072 0.001482009 0.02880871 -0.02025717 0.001366674 0.02268189 -0.01323288 0.001305401 0.02329546 2.75334e-4 0.001480937 0.03627091 0.007824242 0.001552104 0.0429421 0.006815314 0.001465022 0.04961937 0.001294314 0.001375079 0.01384973 0.005315661 0.001689612 0.01474732 0.005443811 0.005663454 0.02517801 0.01932477 0.005839467 0.03282731 0.01013749 0.005944371 -0.008558273 0.005059003 -0.01695567 -0.001976132 0.0129829 -0.008370399 -0.006138563 0.01943594 -0.01709645 0.08031576 -0.02447837 0.003665328 0.08046132 -0.01608663 0.002946257 0.08550816 -0.02359044 0.003245055 -0.02015191 -0.03247159 0.003646075 -0.01842814 -0.03160643 -0.004105806 -0.01639109 -0.03347778 0.003676474 -0.01795196 -0.02911508 0.003735899 -0.05060213 -0.01095038 -0.004105806 -0.05077499 -0.01391482 0.00556457 -0.04867887 -0.009973585 0.006149232 -0.05273818 -0.01051759 0.00586003 -0.02755975 -0.04245972 -0.004105806 -0.02556675 -0.04343974 0.006147623 -0.07711678 -0.03353846 0.006142199 -0.07534229 -0.03230321 -0.004105806 -0.0744571 -0.03035831 0.005954205 -0.02855557 -0.03089308 -7.37916e-4 -0.0193727 -0.02774024 -7.59671e-4 -0.01896601 -0.01858884 -8.04614e-4 -0.03253263 -0.01783412 -8.33182e-4 -0.0291121 -0.03286033 0.003698885 -0.01614481 -0.0209186 0.003746807 -0.03177714 -0.01301646 0.003661155 -0.03424483 -0.01819843 0.003555417 -0.0167818 -0.02315759 -0.008362889 -0.02888238 -0.0316804 -0.005987942 -0.03346294 -0.03073656 -0.008363187 -0.03077471 -0.01623129 -0.005362451 -0.02839905 -0.0134465 -0.008541166 -0.01676386 -0.02264106 -0.005363166 -0.02001589 -0.03410601 -1.03877e-4 -0.02864873 -0.04061263 0.005815625 -0.03040885 -0.04268223 0.005549907 -0.07247608 -0.03322368 0.005449354 -0.08094137 -0.04361784 -0.004690229 -0.09377634 -0.01581257 -0.004695415 -0.08338189 -0.001975357 -0.006452262 -0.02320623 -0.007445037 -0.01582163 -0.007982373 0.01147603 -0.01586246 -0.0113576 0.03049325 -0.01530557 -0.03008252 0.04066461 -0.01572149 -0.04603976 0.03647524 -0.01567554 -0.05674242 0.01872712 -0.01584887 -0.05065268 -0.001285254 -0.01513171 -0.01419645 0.00784415 -0.02776747 -0.02798002 0.03538906 -0.02790707 -0.0460028 0.03475183 -0.02433621 -0.04101443 -0.005558073 -0.02373939 -0.03321439 0.03843957 -0.02737736 -0.02138644 0.03745955 -0.02704852 -0.009355247 0.01652604 -0.02708959 -0.007052719 0.01505321 -0.02636939 -0.01493489 6.30672e-5 -0.02694463 -0.03991603 -0.004423797 -0.02714556 -0.05053609 0.03051513 -0.02680355 -0.02522325 -0.01031088 -0.01698553 -0.04655748 -0.005312979 -0.01730644 -0.05732965 0.01136994 -0.0173527 -0.05971801 0.01605868 -0.01686763 -0.05544298 0.02929598 -0.01711225 -0.03956377 0.04107022 -0.0176649 -0.03291231 0.0449807 -0.01659458 -0.0109151 0.02941983 -0.02646243 -0.0266872 -0.006454825 -0.02683997 -0.04445958 -0.0057953 -0.02657753 -0.0536555 0.006438612 -0.02689468 -0.05509555 0.02088207 -0.02680033 -0.04006761 0.04013466 -0.02666586 -0.0190826 -5.72148e-4 -0.04069364 -0.03543561 -0.005266845 -0.04084646 -0.05133229 0.007080793 -0.04089522 -0.02790206 0.0376206 -0.04082387 -0.01250398 0.02465713 -0.04085534 -0.01148337 0.0111677 -0.04093778 -0.008515894 -0.02647954 0.00880742 0.00675857 -0.02775102 0.009746253 0.01593726 -0.01498007 0.00892955 0.01167917 -2.21603e-4 0.009518444 -9.43475e-4 0.004355788 0.01018643 -0.01340019 -0.003645002 0.009737074 -0.05073851 0.01052892 -0.02807384 -0.03855186 -0.001894414 -0.02795678 -0.02495139 -0.002021074 -0.02795159 -0.01294732 0.01644945 -0.02817475 -0.01516008 0.02679377 -0.02762794 -0.04097038 0.03331369 -0.02813357 -0.05253607 0.01743298 -0.02755016 0.02641957 0.02254515 0.006496906 0.02114671 -0.003414094 0.007965981 0.01143801 0.01445031 0.005693376 0.01912963 0.02192932 0.005690872 0.02944773 0.02137815 0.006664812 -5.6438e-4 -0.02814823 0.004386723 0.01328104 -0.006938099 0.004386723 -0.01121246 -0.001905024 0.004386723 0.01900589 0.001452028 0.009117901 0.03295284 0.00873202 0.009110271 0.024109 0.01867753 0.00915277 0.01569116 0.01390063 0.009192109 -0.03204005 -0.002594709 -0.03806346 -0.03086954 0.03528511 -0.03806585 -0.05013102 0.02203476 -0.03806507 -0.09557098 -0.01638138 0.01673299 -0.08297228 -0.04352563 0.01673483 -0.00653088 -0.008384287 0.003220617 -0.002607166 -0.02050113 0.003030836 0.007474422 -0.01509237 0.003039956 0.003409504 -0.005115628 0.003017187 -0.01778352 -0.006076812 -0.01696002 -0.04247862 -0.01058709 -0.01656216 -0.05667328 0.001449882 -0.01663684 -0.04787468 0.04012286 -0.01645398 -0.01499873 0.03773677 -0.01691913 -0.006272733 0.02764749 -0.01661288 -0.005415141 0.0298053 -0.008719742 -0.06122297 0.01436424 -0.008682906 -0.05687278 -1.25285e-4 -0.008885443 -0.04565083 -0.009751915 -0.008853673 -0.05879265 0.02887129 -0.005593597 0.08783239 -0.01528638 0.006081581 0.07455652 -0.04318344 0.01672214 0.08737158 -0.02972406 0.0167303 0.08820557 -0.002672076 0.005662798 -0.01775646 -0.006368458 -0.005363404 -0.008355855 0.02944982 -0.005364298 -0.02096921 0.04047101 -0.005363583 -0.03575044 0.04302603 -0.005360901 -0.05386143 0.03194886 -0.005363166 -0.04557234 -0.008852839 -0.005364 -0.06481719 0.005866825 -0.005157172 -0.06046062 0.01176583 -2.46678e-4 -0.03302556 -0.01486366 -0.004106938 -0.0354892 -0.01428467 0.002613842 -0.03100448 -0.01286405 -3.55609e-4 -0.02288019 -0.01312822 -5.99557e-4 -0.01707172 -0.01819705 -0.004398107 -0.01571273 -0.02353477 -0.004398107 -0.01347768 -0.02225708 0.008546531 -0.01753234 -0.009356975 -0.008465528 0.04121619 -0.06046009 0.002468883 0.0374847 -0.05591958 0.002872824 0.08496874 -0.01006668 0.002700626 0.06659007 0.03128701 0.002757668 -0.008136391 -0.01125085 0.002129673 0.03001147 0.01860994 0.001644015 0.003307878 0.02324479 0.001955032 -0.06765401 0.006249547 -2.99318e-4 -0.07738006 0.006441771 1.25367e-4 0.007396996 0.02440464 0.00573194 -0.08331114 -0.001881122 -0.001041114 -0.06955081 -0.004493534 3.06768e-5 -0.07659894 -0.007525503 -2.55148e-4 -0.07336825 -0.007692158 -0.005529582 -0.06442612 -0.00161904 -2.75575e-4 -0.06621831 8.52874e-4 -4.61173e-4 -0.05371421 -0.004272103 -3.06479e-4 -0.076487 -0.02919197 -0.005245029 -0.08687835 -0.007579028 -0.001928806 -0.006028771 0.006731867 -0.005363643 0.007270455 0.03528475 0.009606897 -0.03358191 0.04358273 0.009772002 -0.02553945 0.04619824 0.00908786 -0.0217663 0.04904288 0.01154893 0.003719687 -0.0518893 -0.004798412 -0.002212882 -0.04687613 -0.005070805 -0.01458525 -0.02980357 -0.005587339 -0.004834175 -0.04966044 -0.005282044 -0.002619743 -0.05919164 -0.002020478 -0.06898701 -0.02125155 -0.005194306 -0.03112149 -0.0435118 -0.005206465 -0.02455413 -0.04240363 -0.005039751 -0.03075027 -0.04013824 -0.005271852 -0.08127456 -0.03245937 -0.002952098 -0.0718981 -0.03452277 -0.004907846 -0.05288761 -0.00573492 -0.005102157 -0.0359978 -0.01388567 -4.00066e-4 -0.01873183 -0.0110628 -0.005380094 -0.0224412 -0.01282256 -0.005184531 -0.005047261 0.0298928 -0.00502485 -0.04120719 0.04233813 0.01165229 -0.06223016 0.02123361 -0.00196886 0.02156102 0.04563444 0.01002782 0.007389247 0.04008412 0.009731829 -0.004738628 0.02894216 0.005043983 0.01767462 0.04336082 0.009761571 0.01074045 0.03728747 0.005684018 0.02936458 0.03650337 0.006359696 0.01738363 0.0451985 0.005509316 8.31337e-4 0.02500027 0.008934378 -2.77409e-4 0.02722549 0.005487501 4.65926e-4 0.01667195 0.009920179 0.01679414 -0.01462918 0.005662977 0.01991987 -0.002844214 0.005738675 -0.006119787 0.002630531 0.003830909 -0.003029525 0.01750504 0.003450751 0.01559507 0.04544556 -0.002311646 -0.01548057 -0.02015435 0.005580902 0.07420068 -0.04248034 0.005636692 0.07686984 -0.03324061 0.005599439 0.07633531 -0.01736837 0.006255686 0.0775237 -0.01517885 0.005878508 0.05137676 -0.001500546 0.006798326 0.05548 0.008253335 0.005317807 0.06944185 0.02890312 0.004981637 0.03696519 0.01130896 0.005494475 0.03858935 0.01778805 0.00522089 0.02079343 -0.02683866 0.004075348 0.01579833 -0.01836448 0.006338894 0.003012537 -0.02929282 0.005647003 0.06464356 -0.04762434 0.00511974 0.07452464 -0.02215075 0.005880475 0.02816218 -0.02985101 0.003827273 0.08473193 -0.002188146 0.005316019 0.08212345 -0.03143423 0.006142497 0.08294582 -0.028427 0.006245434 0.06201994 -0.009037733 0.003941357 0.03708851 -0.06304872 0.0167371 0.0536307 -0.05686801 0.005715906 0.03672248 -0.05488896 0.005136132 0.08439934 0.00392282 0.005143463 0.08389627 -9.74462e-5 0.002754986 0.05173069 0.04512757 0.01674127 0.05810588 0.04081672 0.005698204 0.04008209 0.04462903 0.006372094 0.07620745 0.01934754 0.005433142 0.07832938 0.0227366 0.005674421 -0.04072564 0.05317091 0.01673251 -0.04215574 0.05025076 0.01182144 -0.002977252 -0.06125462 0.01672554 0.03308826 -0.05948579 0.005812644 -0.06968712 -0.04818117 0.01673597 -0.08771646 -0.02987945 -0.002031743 0.05768942 0.05187636 -0.002096295 0.07428044 0.05334645 -0.001089155 0.06956768 0.05745953 -0.01703453 0.07444864 0.05160409 -0.01686102 0.1042786 -0.004126787 -0.0168215 -0.07855266 0.005242526 0.006991088 -0.07878452 0.006576538 0.0117768 0.05550956 0.00827825 0.00260502 0.03883916 0.01767116 0.002656161 0.05476713 -0.01884692 0.004000961 0.01042717 0.0105133 0.005721151 -0.002576351 -0.04355025 0.006739139 -0.08806544 -0.03465181 -0.005939185 -0.06433385 -0.05043303 -0.004734754 -0.05099773 -0.05445647 -0.004660725 -0.03157377 -0.05888062 -0.004784762 -0.01163196 -0.0618804 -0.004844248 0.007712006 -0.06321138 -0.004822492 0.02317219 -0.06120538 -0.006675302 -0.03971421 0.05410921 0.009062945 -0.05801063 0.04354953 0.01673251 -0.05944162 0.04276961 0.009192764 0.04209059 -0.06223714 -0.008180439 0.03675556 0.04715621 -0.008054137 0.01770806 0.04454153 -0.007571697 0.07644796 -0.04629004 -0.008386969 0.07111161 -0.05212801 0.01673656 0.09101593 -0.01273906 -0.008374512 0.09226661 -0.01153302 0.006747186 0.08135938 0.02775681 0.01673823 0.07262331 0.03452527 -0.008309125 0.07087749 0.03740066 0.00688976 -0.07778513 0.01391398 0.009111046 0.07248604 0.01798117 0.01675438 0.01322859 -0.05576646 -0.008377254 0.08978337 0.01020735 -0.008417308 -0.03703373 -0.04965156 -0.008364558 -0.04091769 -0.0251879 -0.008363187 -0.07063728 -0.04265725 -0.007870972 0.050453 0.04608684 -0.008364856 -0.07630699 -0.007690668 -0.008998692 -0.06445831 -0.01545453 -0.008363187 -0.06733793 0.00639981 -0.008805692 -0.008884429 -0.03381073 0.002314269 -0.02137714 0.05275982 0.008616924 -0.04870182 0.04107427 0.00825411 -0.01949483 0.05172842 -0.004764378 -0.0581299 0.03920304 0.01196527 -0.02454453 0.04634016 -0.003195345 -0.03507328 0.04554551 -0.005412459 -0.02085036 0.04345965 -0.008179903 -0.03498291 -0.05071771 -0.003344953 -0.03554946 -0.04918354 0.005152046 -0.03202581 -0.03351628 0.005151152 -0.03153175 -0.03220897 -0.005024611 -0.03895944 -0.02936208 -0.005200088 -0.04010814 -0.02997004 0.005157887 -0.0395295 -0.01960372 0.005151093 -0.06502419 -0.01437276 0.005150914 -0.07072645 -0.03145718 -0.005041182 -0.07147842 -0.04261541 -0.001921236 -0.0705735 -0.04144865 0.005147159 -0.07011806 -0.04439848 -0.002446651 0.03285676 0.009818971 0.001877307 0.02166652 7.40168e-4 0.005676567 0.02052974 -0.003517985 0.002015948 -0.002232611 0.006198108 0.001646757 0.02901262 0.04388052 0.001495659 0.01566904 0.01443016 0.005873501 0.05228072 -0.01140874 0.001658618 0.01182383 0.003816664 0.002291858 -0.07988315 0.00344491 1.1591e-4 0.07253223 0.04047405 -4.44917e-5 0.05241805 0.04748392 0.001521527 0.06283038 0.05783766 -0.01688313 0.1034439 0.006542146 -0.01604795 0.09433257 0.009347498 -0.01622623 0.07247096 0.04427212 -0.01608508 0.07204914 -0.03886002 0.005454719 -0.0831418 -0.03672075 -0.001983523 0.02066433 -0.05314886 0.005573809 0.006148576 -0.04839003 0.005965411 0.05401122 -0.01244705 0.006487011 0.03465449 -0.02509933 0.006509542 -0.00955516 -0.03117758 0.007035195 0.03704547 0.009442806 0.007545948 -0.002953529 0.02819257 0.01015102 0.0142802 -4.79029e-4 0.01041549 0.01377874 -0.001165807 0.005542695 0.002108573 0.01254624 0.005686104 0.009975254 0.01122707 0.01058596 0.001971006 0.01701915 0.005694031 0.01602661 0.02028053 0.01088094 0.01028347 0.03757685 0.009316325 -0.009135961 -0.02761042 0.005516767 0.01552343 0.01996296 0.005733907 0.006827473 0.03480911 0.005682289 0.001646578 0.01284301 0.009311497 6.52785e-5 0.00423032 0.005664587 0.02330094 -0.01955664 0.006061494 0.005458116 -0.04357743 0.005194783 0.04477053 -0.02102506 0.00684148 0.08354938 -0.01287257 0.005171 0.04559606 0.006143331 0.006565988 0.02150577 -0.01602923 0.006228983 0.01212567 5.54752e-4 0.005512535 0.01887148 -0.05959212 0.005160391 0.01743876 -0.05960261 -0.002172589 -0.01015079 -0.03572118 0.005252778 -0.017856 -0.01075643 0.005209147 0.0286951 -0.05961495 0.005784332 0.08117085 -0.03413736 0.006347596 -0.007357537 0.04014265 -1.89387e-5 -0.006373822 0.03068673 -2.06555e-4 -0.0093351 0.03523218 -2.96791e-4 -0.0592612 0.003659784 -3.72121e-4 -0.05815517 8.53875e-4 -0.005109667 -0.06035298 0.01908212 0.01566946 -0.06582033 0.00137639 -0.005382776 -0.05533117 -0.003069818 -0.005051314 -0.06861126 -0.02058422 -6.04184e-4 -0.01729637 -0.04860699 -0.00531727 -0.02147388 0.04399317 0.01547032 -0.02162694 0.04084873 0.0164538 -0.02143478 -0.01027375 -5.69192e-5 -0.02314847 0.04309177 0.01022112 -0.05981814 0.01999729 0.01000964 -0.01730978 0.04209476 0.01542103 -0.01832067 -0.010338 0.01544058 -0.05330163 -0.01491552 -0.005049586 -0.01570904 -0.02355909 -0.004462182 -0.01570153 -0.02361923 -0.004534423 -0.01339292 -0.05858296 -0.001391947 -0.01930451 -0.05903261 -0.001241803 -0.07742989 -0.03436136 -0.003722071 -0.05994772 0.004464566 -0.005164742 -0.01707959 -0.01817357 -0.004462122 -0.01710224 -0.01811724 -0.004534602 -0.007856488 0.02912372 4.309e-4 -0.01609939 0.03878563 -5.62642e-4 -0.08296716 -0.02989608 -1.44567e-4 0.01048773 0.02789694 0.005627036 0.001293361 0.02255517 0.005796134 0.002813577 0.02311521 -0.006272792 -3.79057e-4 0.02738475 0.002260863 -0.01434326 -0.01283425 0.002280533 -0.01453709 -0.01122629 -0.006212711 0.05851769 0.04015868 0.00221914 0.008893013 0.03658258 0.002318799 -0.001161575 0.04253864 -5.15621e-5</float_array>
          <technique_common>
            <accessor source="#Mesh-mesh-positions-array" count="597" stride="3">
              <param name="X" type="float"/>
              <param name="Y" type="float"/>
              <param name="Z" type="float"/>
            </accessor>
          </technique_common>
        </source>
        <source id="Mesh-mesh-normals">
          <float_array id="Mesh-mesh-normals-array" count="3870">0.03970438 0.994094 0.1009995 -0.8031188 -0.5776171 0.1461459 0.8438442 -0.505954 0.1787108 -0.8523202 0.5073174 0.1271983 -7.22502e-4 -0.9896593 0.1434363 0.8684539 0.4725209 0.1500404 -0.971592 -0.2356708 -0.02164375 0.07855999 -0.993809 0.07856327 -0.03961652 -0.9923676 0.116779 0.896213 -0.4436176 -0.002408325 0.8020703 0.588948 0.0991137 0.8080564 0.5811485 0.09649509 -0.2720127 0.9614697 -0.0398153 -0.8269676 0.4958494 0.2650625 -0.9718937 0.2347038 -0.0183525 -0.8082331 -0.439716 0.3916751 -0.3292662 -0.9440253 -0.02000188 0.8650573 -0.4269009 0.263499 0.7459803 -0.6569163 0.1094273 0.8446077 -0.5026963 0.1842133 -0.1888833 0.7969475 0.5737577 0.1429556 0.9890304 0.03718584 7.29826e-4 0.993299 0.115572 -0.2579584 0.9643252 0.05945175 -0.4503685 -0.8777045 0.1637167 0.9057973 -0.3904282 0.1646127 0.9507623 0.2795771 0.1337454 -0.6480225 0.7499088 0.1330554 -0.1824253 -0.975515 0.1228484 -0.419401 0.08431106 0.9038776 0.9509235 -0.3091978 0.01189428 0.9422001 0.2862153 0.1741833 0.7641972 -0.4124251 0.4958914 -0.5668724 0.7026914 0.4299776 -0.4658903 -0.8840293 0.03792643 0.2350975 -0.8790048 0.4148252 0.8791399 -0.476563 9.29325e-4 0.9663184 -0.2531132 -0.04650479 -0.004976153 0.9764345 0.2157566 0.4561434 0.8890084 -0.03996604 -0.3834865 0.9198469 0.08258205 -0.8499717 0.3664211 0.3785283 0.1830137 0.9814738 0.05670201 -0.4193248 0.8537409 0.3086961 -0.9784535 0.2064366 0.003565192 -0.7965424 -0.5967808 0.09681391 0.5358205 -0.6739373 -0.5086306 0.9990088 -0.02970492 0.03315329 0.9464365 0.3148214 0.07173281 0.9466828 -0.1833522 0.2649031 -0.1777833 0.9796 0.09368646 -0.4266767 0.8758611 -0.2254204 -0.2548602 -0.9629289 0.08839833 -0.6036108 -0.7636932 -0.2289687 0.5764949 0.2524921 0.777111 -0.2828498 0.6819468 0.6744958 -0.6123626 -0.4512979 0.6491088 0.3166398 -0.4541327 0.8327682 0.9558809 0.2055333 -0.2098758 0.9662838 0.2562716 -0.02490919 -0.246564 0.967524 0.05571019 -0.2315963 0.9686058 0.09036701 0.8616589 -0.08780413 0.4998344 0.01847141 0.728756 0.6845243 -0.2634679 0.2346346 0.9356983 -0.9854271 -0.08628451 -0.1465898 -0.2400576 -0.3604231 0.9013699 0.2146887 -0.8909136 0.4002273 0.643553 0.02972573 0.7648242 0.6391424 0.07910269 0.7650097 -0.06184828 0.6989275 0.7125133 -0.5014865 0.6012496 -0.6221016 0.03486692 0.1512399 0.987882 -0.9920315 -0.03944224 -0.1196575 -0.9936199 -0.1020396 -0.04803705 0.02571904 -0.9607622 0.2761786 0.5911543 -0.4782703 0.6494568 0.7045947 0.708676 0.03639554 0.1916117 0.8748413 0.444902 -0.3196025 0.9178777 0.2352758 0.1771349 -0.826036 0.5350587 0.989229 0.1305518 0.06619876 -0.03913331 0.8082169 0.5875834 0.2335132 0.8822681 0.4087476 -0.9962024 0.04179924 -0.07637882 -0.606511 0.7875085 0.1094296 0.7639719 0.6421154 0.06351989 0.1709982 0.9678203 0.1846171 -0.9649285 -0.04149329 -0.2592131 -0.9648073 -0.04023718 -0.2598612 0.8006179 -0.5354413 0.2689117 0.7425175 -0.6357451 0.2109406 0.8536955 -0.3852999 0.3503544 0.6300252 -0.7639575 0.1394177 -0.1619711 0.958211 -0.2357904 0.09123885 0.9395936 -0.3299083 -0.992937 -0.06410771 0.09983152 -0.7817329 -0.6159417 -0.09751641 -0.7817339 -0.6159515 -0.09744775 -0.7817329 -0.6159418 -0.09751623 0.9781011 -0.02428394 0.206709 0.9780943 -0.02428203 0.2067415 0.9780992 -0.02428311 0.2067177 -0.4607447 0.8850117 0.06684809 -0.4607477 0.8850055 0.06690955 -0.4607461 0.8850101 0.06686007 -0.1840676 -0.9759145 0.1170893 0.2046957 0.9735881 0.1011238 0.3745594 0.925608 0.05436152 -0.9656267 0.2595078 0.01486098 -0.951312 -0.2787836 0.1314727 0.5879579 -0.7993317 -0.1239936 0.750321 -0.6585727 -0.05745112 -0.3490983 0.9370647 0.006343126 0.1700638 0.9728655 -0.156879 -0.6202027 -0.7667238 0.1657814 -0.9430406 -0.3324752 -0.0116052 0.8044601 -0.5935811 0.02248448 0.9007614 -0.4278177 0.07484084 0.4128245 0.9044018 0.1078583 0.7384101 -0.5414614 -0.4019579 -0.1761649 0.9587537 0.2230638 -0.9504052 -0.3087315 0.03761535 -0.2467537 -0.9511866 0.1853557 0.6103496 -0.7919998 -0.01448595 -0.7374801 0.6317752 0.2387118 -0.4596195 -0.8829931 0.09525305 0.8703453 0.4809236 0.1058856 0.978938 -0.2003502 0.03924703 0.9546784 -0.2914823 0.06022757 0.3930773 -0.7507044 0.530974 -0.3364464 -0.9328787 0.1286128 -0.9970109 0.02553284 0.07291966 -0.7906177 -0.6103072 0.04948824 -0.1731766 -0.984171 0.03764873 -0.9754118 0.1867275 0.1170673 -0.2675827 0.9527604 0.1436914 -0.8921764 0.4222702 0.1603414 -0.9753099 0.2033511 0.08613336 -0.3571844 0.9340337 7.25056e-4 0.6242458 0.769995 0.1320037 0.9995751 -0.02408695 0.01641255 0.9760801 0.2143617 -0.03628784 0.3784803 0.9242576 0.0500068 0.6907758 0.7194909 -0.07184547 0.954202 -0.2564886 0.1539879 0.2205991 -0.9729717 -0.06827902 -0.2058726 -0.9763096 0.06660342 0.9087464 0.3484147 0.2297548 0.4602446 0.8859736 0.05679637 -0.01645433 0.9986031 0.0502119 0.7575454 -0.6485352 0.07434493 0.9173728 -0.3975531 0.01946038 -0.8208724 0.570836 0.01774418 0.4420285 0.8066242 -0.3923881 0.9922831 0.1239809 -0.001772463 -0.4209398 -0.8758173 -0.2361225 -0.07233607 -0.92128 -0.3821135 -0.6231307 0.6669181 -0.4085689 0.3340459 0.9409427 -0.05514001 0.4844986 -0.8197454 -0.3054155 0.7018785 -0.6633464 -0.2594963 -0.7297152 -0.645621 0.2251429 -0.6235358 0.7466065 -0.2319093 0.4482155 0.8292271 -0.3338945 0.7828708 0.6101195 -0.1219326 -0.4501816 -0.8929244 -0.004767179 -0.3863716 -0.9209479 -0.05071538 0.9810652 -0.1936742 -0.001181602 0.9657946 -0.2564154 0.03862661 0.5709546 0.8166599 -0.08412832 0.7666366 0.6404186 0.04617857 0.268472 0.9619215 0.05128329 0.05526685 0.9979176 -0.03325724 -0.7457849 0.6661224 0.009260118 -0.7529256 0.6580961 0.003540992 0.4339218 -0.9003745 -0.03221601 0.6265805 -0.7532356 -0.2000826 -0.1788777 -0.9563621 -0.2310288 -0.6122568 -0.7878059 0.06710857 -0.9832654 -0.08057123 -0.1633937 -0.939967 0.3310474 0.08288401 -0.4146176 0.8805369 -0.2296677 0.3252591 0.9204939 0.2165583 0.9009307 0.3341689 -0.2768663 0.9982568 0.03555279 -0.04711169 0.4705279 0.8782445 0.08538269 0.5558698 0.8172708 -0.1519119 0.9717032 -0.09461301 -0.2164286 0.9804294 -0.1264311 -0.150909 0.4003505 -0.7811096 -0.4791526 0.1041659 -0.953601 0.2824796 -0.6053318 -0.5109638 -0.6103193 -0.9514003 -0.3074774 0.01718276 0.7436747 -0.6159754 -0.2598503 0.8165931 -0.568194 -0.1016434 0.8459312 -0.1473949 -0.5125186 0.9127549 0.03886139 -0.406655 0.9680125 0.1946045 -0.1583699 -0.0998739 0.2444959 -0.9644932 0.4379935 0.2912107 0.8505046 -0.0964201 0.4472323 -0.8892056 -0.3049663 -0.5166326 0.8000538 0.2537724 0.9534577 0.1628434 -0.9283205 -0.334344 0.1625891 0.8284732 -0.5462963 0.1232588 0.86028 0.482921 0.1634185 -0.883662 0.4517613 0.1226913 0.1275773 -0.9893336 0.07030671 0.1462862 0.9870442 0.0659101 -0.6780527 -0.7324081 0.06183111 -0.6780502 -0.7324057 0.06188637 -0.6780524 -0.7324081 0.06183367 0.7332462 -0.6494553 0.2013901 -0.05077052 0.9925404 0.1108423 -0.7935116 -0.5806764 0.1820829 0.7675134 -0.6385887 0.05592703 -0.5880795 0.797653 -0.1338369 0.4734274 0.09345245 -0.8758614 0.8677321 -0.2497156 0.4297478 -0.2788179 -0.6093754 -0.7422414 -0.6367363 -0.7592544 0.1345355 -0.2419008 -0.8926678 0.3803005 0.9291153 0.3301443 0.1665822 0.5267241 0.7499728 0.4001281 -0.03663617 -0.9795335 0.1979189 0.7902876 -0.6065956 -0.08652961 0.8882687 0.2732105 0.3692355 0.9113751 0.3215599 0.2568945 -0.3029198 0.8847194 0.3542759 -0.2974252 0.8826658 0.3639224 -0.9146655 0.2012009 0.3505786 -0.8399878 0.03998392 0.5411301 -0.4434003 -0.8790495 -0.1751231 -0.03928101 -0.6783202 0.7337158 0.8587073 -0.4150642 0.300572 -0.1409066 0.9811641 0.1321459 -0.3308742 0.9417668 0.05998063 0.8675941 -0.4804474 0.1282609 0.9930124 -0.1074898 -0.04870629 0.6628488 0.7376765 0.1283156 0.3441081 0.9385955 -0.02506166 -0.1644232 -0.9825744 0.08667552 0.167778 -0.9829031 -0.07584333 -0.7454993 0.6353823 0.2012967 0.08622288 -0.9879249 0.1287245 -0.01117777 -0.9964467 0.0834822 -0.9828122 0.1839262 0.0158528 0.006758689 0.7529591 0.6580326 -0.2687652 -0.006573855 -0.9631834 0.1285814 -0.8589289 0.4956895 0.5036143 -0.3375614 0.7952516 0.6890717 0.2314925 -0.6867252 0.4947361 0.4920545 0.7163229 0.07327675 0.6230968 -0.7787047 0.4307411 0.2492635 -0.8673695 0.06412869 0.01077836 -0.9978835 -0.09463572 -0.09681999 -0.9907926 -0.07837343 0.09948873 -0.9919474 0.1044064 0.06016534 -0.9927132 -0.2950532 -0.3534467 -0.8877044 -0.02172702 -0.1561472 -0.9874948 -0.1185078 -0.07926589 -0.9897843 -0.1611808 0.1717581 -0.9718642 0.05389207 0.1773015 -0.98268 0.2437291 -0.09110605 -0.9655547 -0.8047219 0.5656895 -0.1800503 -0.3866074 0.9030348 0.1872515 0.071388 0.9367898 -0.3425328 0.2236504 0.9713692 -0.08014106 0.7471015 0.6504525 -0.1369343 0.7786475 0.5267907 -0.3408809 0.9942199 -0.04641687 0.09681093 0.9283775 0.09214872 0.3600335 0.5576252 -0.8208668 -0.1234174 0.4796197 -0.8214815 -0.3084363 -0.07207626 -0.9783617 -0.1939421 -0.1499954 -0.9873172 -0.05202329 -0.6193787 -0.7527277 0.2230943 -0.7957008 -0.6033576 -0.05310267 -0.9579794 -0.1960238 0.2094044 -0.5238553 0.3540796 -0.774728 -0.9639545 0.1422765 0.2248312 -0.5659422 -0.1737917 0.8059193 -0.8765353 -0.4806773 0.02520209 -0.1029267 -0.8025387 0.5876544 -0.02150738 -0.583881 0.8115543 0.8112953 -0.584321 -0.01920431 0.5730737 -0.1436711 0.8068118 0.9577764 0.2790939 -0.06907284 0.2295179 0.5121342 0.8276716 0.2256131 0.4422233 0.8680653 -0.5003323 0.7551929 0.4234988 -0.4018951 0.40863 0.8194522 -0.6818322 0.3698102 0.631146 -0.7141276 0.2399902 0.6575915 -0.8300477 0.1527972 0.5363525 -0.5420568 0.7412961 0.3957961 0.5553862 -0.8171756 -0.1541759 -0.2424688 -0.8898332 0.3865308 -0.2591817 -0.9603274 -0.1029381 -0.337184 -0.9268085 0.1653268 -0.9063079 -0.4220315 -0.02226561 -0.979 -0.1693512 0.1134871 -0.7413468 0.6593845 0.1249688 -0.8033071 0.5954312 -0.01263254 -0.8645604 0.4996534 0.05368465 0.1743538 0.9814187 0.08011358 -0.1198981 0.9149621 0.3853166 0.3397484 0.9137035 0.2229734 0.8009938 0.5814152 0.1427071 0.8134075 0.5548124 0.1747898 0.9196321 -0.3434677 0.1905432 0.9659695 0.2090299 0.1523469 0.08330798 0.9961373 -0.02775645 -0.3423215 0.9199092 -0.1912672 -0.4163294 0.9014685 -0.1184252 -0.8661208 0.4098502 -0.2861077 -0.8707132 0.385266 -0.3056612 -0.9865296 0.003214716 -0.1635513 -0.9666352 -0.09482318 -0.2379601 -0.6074122 -0.7825394 -0.136684 -0.6145749 -0.7738069 -0.1533649 -0.1519929 -0.9883192 0.01110655 0.2695055 -0.9307111 -0.2472724 0.4816079 -0.8700631 -0.105091 0.8164803 -0.5331209 -0.2216803 0.9468125 -0.3210827 -0.02126365 0.9808045 0.07530945 -0.1798641 0.8631262 0.4958809 0.09547519 0.6172955 0.7339165 -0.2833954 0.1369765 0.9840717 -0.1133155 0.1386827 0.9842022 -0.1100594 -0.5959919 0.8014361 -0.04993826 -0.6548701 0.7161223 -0.2414829 -0.8381472 0.3965804 -0.3744777 -0.9138052 0.2898579 -0.284504 -0.7776931 -0.3415394 -0.5277731 -0.944277 -0.09208559 -0.3160085 -0.8392577 -0.5420282 -0.04303729 -0.7887828 -0.5967265 -0.1474419 -0.2280784 -0.9736423 -9.55764e-4 -0.03990602 -0.9325004 -0.3589578 0.4580762 -0.8025968 -0.3821054 0.4476113 -0.8130535 -0.3722743 0.7588946 -0.6286192 -0.1700502 0.8428283 -0.4308012 -0.3225691 0.9859284 -0.166121 -0.01868247 0.9440258 0.2524173 -0.2123699 0.9000716 0.4357081 0.005429804 0.5759481 0.7222316 -0.3829692 0.8060711 0.2393384 0.5412639 0.6846069 0.2777769 0.6739091 0.03152441 0.8915905 -0.4517441 -0.6545587 0.4272798 0.6236865 -0.9701407 0.2412467 0.02504253 -0.1628727 -0.7926179 0.5875623 -0.4530526 -0.8865341 0.09381246 0.6515722 -0.6607546 -0.3726353 0.7124746 0.1856751 0.6766865 0.4883634 0.8640934 -0.121835 -0.3324785 0.6376889 0.694846 -0.7529567 0.6300718 0.1899102 -0.7524478 -0.4941217 0.4355069 -0.5976607 -0.534013 0.5980232 0.1650292 -0.9855017 -0.03939425 0.4333536 -0.7596563 0.484899 0.9322022 -0.1761415 0.3161857 -0.6235361 0.6723256 0.3989752 -0.4797638 0.8755908 -0.05628001 -0.9351842 0.1509153 0.3203985 -0.9425165 0.2628141 0.206377 -0.9759092 -0.211573 0.05327475 -0.6195012 -0.6931201 0.3685144 -0.5517009 -0.8174998 0.1652891 0.1582579 -0.9867803 -0.03491657 0.5238799 -0.7615219 0.3816207 0.8048632 -0.5888761 -0.07362294 0.9263541 0.2178824 0.3072383 0.8466711 0.3227005 0.4230988 0.7135838 0.699645 -0.03598737 0.2572219 0.9612546 0.09912878 0.009314358 0.9979611 -0.06314325 0.2068932 0.94866 -0.2392481 -0.08970558 0.9043372 0.4172855 -0.6255858 0.6746957 0.3916991 -0.7614567 0.6131166 0.2104087 -0.8793634 -0.04820483 0.4737049 -0.9250192 -0.1740635 0.3377003 -0.5189136 -0.7613415 0.3887003 -0.4625554 -0.8399313 0.2838274 0.1134427 -0.9044802 0.4111526 0.2498164 -0.9494681 0.1900054 0.8510671 -0.514253 0.1059659 0.8533589 -0.3867833 0.3495388 0.8474766 0.4666409 0.2530411 0.703541 0.2380825 0.6695871 -0.9549142 -0.2836931 -0.08750534 -0.9063721 -0.4206806 0.03895431 -0.7761408 -0.6265639 -0.07087475 0.3780125 0.13675 -0.9156452 -0.07418769 0.3132594 0.9467654 -0.454894 -0.4495167 -0.7687693 -0.01212716 -0.6143977 0.7889034 0.3482511 -0.5062853 -0.7889212 0.8977006 -0.3990207 0.1868586 0.7122672 0.339007 -0.6146135 -0.8864939 0.03712749 -0.4612485 -0.5447108 0.6981464 0.4646309 -0.3226143 0.9388033 -0.1207004 0.951782 0.2891111 -0.1025958 0.9159217 0.0964179 0.3896036 -0.3745883 -0.8187515 -0.4351203 -0.04348754 -0.7570292 0.6519323 0.735755 0.628696 -0.2518055 0.6608759 0.7489619 -0.04794889 -0.9332054 -0.2769759 -0.2289366 -0.9765728 -0.2045864 -0.06670719 -0.636914 -0.7521309 -0.169233 -0.6398732 -0.7465107 -0.1824395 -0.2097089 -0.9775671 0.01961839 0.006533682 -0.9382349 -0.3459371 0.4676969 -0.8198136 -0.330402 0.3456705 -0.9146401 -0.2096322 0.3472805 0.8740232 -0.3398231 0.1407177 0.9897872 -0.02280181 -0.3079293 0.9453437 -0.1072612 -0.7407097 0.6699177 -0.05059158 -0.3543463 0.9338908 -0.04782086 -0.795229 0.5686728 -0.210291 -0.9210102 0.2926923 -0.2570438 -0.9714668 0.1923064 -0.1388178 -0.7685161 0.6365163 0.06503951 -0.8650535 0.3333105 0.3749487 -0.7173298 0.6829056 0.1381231 -0.8589745 0.3556695 0.3683233 -0.9713662 0.1603237 0.1753396 -0.9995605 0.02946096 -0.00331068 -0.9843996 0.09176576 0.1501216 -0.08882129 0.9944671 -0.05608797 -0.7370319 0.5937073 0.3229484 -0.6819508 0.6105042 0.4027749 -0.9789274 -0.176738 0.102298 -0.9555111 -0.09786957 0.2782447 -0.6533186 -0.7477058 0.1187897 -0.448168 -0.8095459 0.3791846 -0.1688534 -0.9769901 0.1303038 0.2398442 -0.9098534 0.3385875 0.5216512 -0.8528931 0.02129799 0.787815 -0.478859 0.3873525 0.943956 -0.3052591 0.1255552 0.9243409 0.2901566 0.247797 0.8813187 0.4616664 -0.1007062 0.1979106 0.8220329 0.5339415 -0.9142434 0.4040384 -0.03019917 -0.9439228 -0.2775772 0.178776 -0.2766754 -0.960845 0.01509052 -0.5558182 -0.829163 -0.059623 0.5776526 -0.6686395 0.4682294 0.9790343 0.1470415 -0.1409641 -0.4497319 0.88536 0.1178098 0.165929 0.8877447 0.4293915 0.8877015 0.3535613 0.2949247 0.8877043 0.3535602 0.2949176 0.8876852 0.3535643 0.2949702 -0.9023531 0.428843 0.0430448 0.2718194 -0.945161 0.1810666 0.03380006 0.9984424 0.04438936 0.4026309 0.8012964 0.4425073 -0.0464583 -0.9964028 -0.07087504 0.6867293 0.7093401 0.1588695 0.9669405 -0.2133779 0.139628 0.9781579 -0.1771272 0.1087805 -0.9599881 -0.2367272 0.1496101 -0.874934 -0.3164973 0.3664971 -0.1869469 -0.1597946 0.9692867 -0.132404 -0.9294473 0.344379 -0.1011087 -0.8972213 0.42985 0.6282691 -0.7157488 -0.3049289 0.6881465 -0.4586269 0.5622417 0.939276 0.2127717 0.2692375 0.9850326 0.1247504 -0.1189457 -0.1700055 -0.9835815 0.06054401 -0.05321103 -0.9859474 0.1583556 0.5172145 -0.8456625 0.1316967 0.6658285 -0.7450169 -0.04027777 0.9462214 -0.3059907 0.1050468 0.9286795 -0.344858 0.1364821 0.699261 -0.713913 0.03690963 0.7036066 -0.7100713 0.02714353 -0.03681033 0.08042091 -0.9960811 -0.02793198 0.06578558 -0.9974428 -0.01042163 -0.09771698 -0.9951597 -0.07802957 0.01012092 -0.9968997 0.02316325 0.02582579 -0.9993981 -0.08795893 0.02904754 -0.9957005 -5.193e-4 -0.002004683 -0.9999979 0.3042365 -0.1571005 -0.9395529 0.02659374 0.0895695 -0.9956255 -0.166718 0.6072303 -0.7768376 0.3117613 -0.08648508 -0.9462163 -0.03296679 0.06165784 -0.9975529 0.2704769 0.6689513 -0.6923485 -6.91565e-4 -0.04024946 -0.9991895 0.04018914 -0.03858876 -0.9984467 -0.1000531 -0.2415589 -0.9652143 -0.07451379 -0.002581298 -0.9972167 -0.2023123 -0.02977401 -0.9788684 -0.04136842 0.03274756 -0.9986072 -0.04653632 0.02834242 -0.9985145 -0.04277664 0.02127277 -0.9988582 -0.07567578 0.009442746 -0.9970878 0.299921 -0.3745937 -0.8773409 0.09635299 -0.2231876 -0.9700018 0.1298797 -0.5994881 -0.7897756 0.1746739 0.06860655 -0.9822334 0.3216627 -0.1849047 -0.9286245 -0.02601855 -0.003869891 -0.999654 0.006292521 -0.0525701 -0.9985974 0.2705179 -0.205733 -0.9404755 -0.04692858 -0.2426687 -0.9689735 -0.04493594 -0.2453432 -0.9683943 0.2259336 0.00976932 -0.9740937 -0.01238381 0.00130999 -0.9999225 0.1851757 0.01686096 -0.9825609 -0.1297518 -0.2381229 -0.962529 -0.1864663 -0.1710792 -0.9674514 0.0771526 0.1094519 -0.9909934 0.05009257 0.02039515 -0.9985364 0.02990645 -0.05406653 -0.9980894 0.06163114 0.02465319 -0.9977945 -0.009383618 0.02268767 -0.9996986 -0.0887441 -0.1868654 -0.9783689 -0.004999816 0.01574015 -0.9998636 -0.1076355 -0.04612374 -0.99312 -0.06374228 0.05874741 -0.9962358 0.07375186 0.1362733 -0.9879223 0.003723561 0.1104592 -0.9938737 4.75475e-4 -0.09667915 -0.9953156 0.07553333 0.01805269 -0.9969799 -0.06106936 -0.1157457 -0.9913998 -0.1355012 -0.1824061 -0.9738416 0.2220658 0.2356913 -0.9461165 0.0165255 -0.1121043 -0.9935591 0.1717285 -0.1556081 -0.9727772 -0.04457652 -0.1420069 -0.9888615 -0.1054686 -0.5473855 -0.8302081 0.2001836 0.3066501 -0.9305333 -8.79038e-4 -0.007995784 -0.9999677 -0.3435183 -0.0743826 -0.9361958 0.2223631 0.05116367 -0.9736206 -0.01560342 0.07509499 -0.9970543 0.04635155 0.003000319 -0.9989207 -0.06435382 -0.04549032 -0.9968898 0.01580703 0.07369977 -0.9971553 -0.0937761 0.04846358 -0.9944131 -0.2208929 -0.01445674 -0.975191 -0.8478088 0.5153254 0.1251403 -0.01301014 -0.3110465 -0.9503057 0.2113111 -0.6635113 -0.717705 -0.03552842 0.04210633 -0.9984813 -0.02159094 0.03628718 -0.9991081 0.03535181 0.05486494 -0.9978678 0.06494003 0.08272033 -0.9944547 0.9949392 -0.08114832 -0.05925375 0.7484385 0.09556555 -0.6562829 0.9980545 -0.0604245 -0.01536864 0.8602095 -0.432168 -0.2706855 0.8348043 -0.549202 -0.03845691 0.39894 -0.3712611 -0.8384582 0.04325169 -0.01845204 0.9988939 0.04721689 0.2558225 0.9655701 -0.003039419 -0.005108535 0.9999824 -0.001099705 -0.004321157 0.9999901 0.0108934 0.02038252 0.9997329 0.01552373 -0.01653283 0.9997428 0.3578215 -0.8942742 0.2687705 0.3731197 -0.891562 0.2567081 -0.5834332 -0.7403159 -0.3339733 0.6231116 -0.6004986 0.5011322 0.5450012 -0.7797774 0.3080925 -0.1978287 -0.9792171 0.04469454 0.7569825 -0.4701051 0.4538489 0.7569 -0.4701149 0.4539763 0.7569727 -0.4701082 0.453862 0.4277109 -0.9037096 -0.01930046 0.02298837 -0.1979287 0.9799469 -0.005018234 -0.01898097 0.9998072 -0.04302632 -0.0218234 0.9988356 -0.03327876 0.05081605 0.9981535 -0.008767902 0.008318483 0.999927 -0.05108189 0.007141232 0.998669 -0.006618261 0.003418207 0.9999723 -0.013484 0.02642041 0.99956 -0.001466989 -0.04016375 0.9991921 -0.001570343 -0.05272024 0.9986082 0.2514938 -0.1876178 0.9495001 0.7231214 0.3787953 0.5775896 0.6093242 0.2535112 0.751303 0.3403796 0.9012015 -0.2682868 -0.06116843 0.6846805 0.7262721 -0.2455052 0.8541474 0.4584318 -0.3349125 -0.1338435 0.9326949 0.3926544 -0.02505993 0.9193447 -0.06945258 6.81031e-4 0.9975851 -0.1876259 -0.2103682 0.9594487 -0.2487118 -0.06306928 0.9665219 0.07230639 -0.0277428 0.9969966 0.03618222 -0.122574 0.9917997 0.117583 -0.02875006 0.9926468 -0.02537894 0.3252997 0.9452704 -0.06115567 -0.01814389 0.9979633 0.1342955 -0.2000721 0.9705339 0.01475721 0.04091989 0.9990535 0.05784589 0.04606407 0.9972623 0.09738242 0.4127013 0.9056459 0.0619775 0.3530043 0.9335668 -0.004094421 0.3647633 0.9310913 0.0138576 0.3266164 0.9450554 0.05463314 0.4074907 0.9115736 -0.02761787 0.01969903 0.9994245 -0.0148642 -0.06203597 0.9979633 0.08402246 0.2067849 0.974772 0.03984051 0.00191164 0.9992042 -0.03338623 0.01106536 0.9993813 0.004674553 -0.03070211 0.9995177 0.2950983 0.2200918 0.9297724 -0.2202542 -0.4265286 0.8772466 0.2473993 0.1103813 0.9626056 0.211006 0.1949737 0.9578423 0.1714211 0.3489137 0.9213436 -0.4505881 -0.833482 0.3198098 -0.4278466 -0.8825296 0.1951635 -0.5912948 -0.7941539 0.1403211 -0.01211214 -0.04747581 0.998799 0.5463048 0.6942971 -0.4685112 0.9618547 0.2527444 0.1046699 -0.02654546 0.07042014 0.9971642 -0.01668798 0.002854049 0.9998567 -0.08634984 0.1106866 0.9900971 -0.1769119 0.1480801 0.9730235 -0.9552205 -0.2915295 0.05063962 -0.363541 0.9135682 0.1822947 -0.2004311 0.9797068 -0.001374483 -0.8474593 -0.5257626 0.07339304 0.009097933 -0.2811186 0.95963 -0.04306775 0.02563947 0.9987431 -0.01898014 -0.275654 0.9610696 0.1641345 -0.9863555 0.01276355 0.2684751 -0.7695313 0.5794332 0.2960637 -0.2666267 0.9172005 0.3683543 -0.1285493 0.9207553 0.2955952 -0.2281318 0.9276742 -0.06083768 -0.3176696 0.9462478 0.5489267 -0.7324498 0.4027367 0.4235526 -0.8972377 0.1247704 -0.1254398 0.03621011 0.9914402 -0.1040959 -0.06660145 0.9923348 0.04486024 0.06640595 0.9967838 -0.1333276 -0.08012205 0.987828 0.0753619 0.2573862 0.9633654 -0.1269527 -0.06890398 0.9895127 -0.1136481 -0.05048155 0.9922378 -0.2051443 0.05288767 0.9773018 -0.03844088 -0.338313 0.9402483 -0.5408781 0.8410803 0.005902409 -0.2972103 0.9309903 0.2119506 -0.9060016 0.3624346 0.2186377 -0.07295799 0.04739063 0.9962084 -0.08250135 0.05172759 0.9952477 0.6697846 0.7032036 0.2385236 0.9913557 0.1203904 0.05215573 0.9420809 -0.001636147 0.335382 -0.1123732 0.02342569 0.99339 -0.0313704 0.001901984 0.9995061 -0.5335146 0.8187184 0.2122796 -0.8157693 -0.1976299 0.5435649 -0.1609349 0.05046683 0.985674 -0.05226927 0.01912772 0.9984499 -0.04574704 0.1936392 0.9800057 0.103527 0.4274014 0.8981149 0.2864829 0.04172545 0.9571763 0.2780854 0.02874964 0.9601261 0.1020071 0.1072027 0.9889906 0.08843904 0.16665 0.9820419 -0.08548742 0.06341439 0.9943192 -0.1733123 -0.2226127 0.9593781 0.1569175 0.002364873 0.987609 -0.120651 -0.1735888 0.9773998 0.1524806 -0.009196102 0.9882637 -0.08558183 -0.4537572 0.8870063 0.1901844 -0.06909078 0.9793143 0.2376541 -0.07711094 0.9682843 0.2475957 0.7595031 0.601541 0.07203859 0.3350625 0.939438 -0.5447833 0.0568391 0.8366484 0.1862209 0.1813431 0.9656275 -0.1778179 -0.2881822 0.9409207 -0.06605821 -0.241326 0.9681932 0.1128825 -0.193773 0.9745305 0.09023517 -0.01607334 0.9957908 0.1887629 0.001230776 0.982022 -0.005822181 -0.2612648 0.9652497 -1.04802e-4 0.07642012 0.9970758 -0.4215509 0.06543165 0.904441 -0.1180928 0.2033841 0.9719511 -0.004129827 0.06926214 0.99759 -0.04662859 0.1814298 0.9822978 0.3335496 -0.4517356 0.8274537 0.3217117 -0.3095883 0.8947942 0.08235925 -0.2823631 0.9557657 0.239092 -0.03055894 0.970516 0.2140537 -0.02551668 0.9764886 -0.1495239 -0.3733171 0.9155747 -0.3499156 0.7367104 -0.5786336 -0.7756557 0.5899218 0.2243898 0.2099399 0.9540256 -0.213917 -0.7588115 0.6498242 0.04397416 -0.7806153 0.5549103 0.2876012 -0.9990765 0.02636396 0.03392964 0.1395664 0.9126668 0.3841362 -0.9094676 0.1061211 -0.4020039 -0.04456698 -0.02200192 0.9987641 -0.1872031 0.03812366 0.9815812 -0.09967762 -0.002476572 0.9950167 0.3595048 0.930352 0.07212269 -0.1774 -0.6314595 0.7548431 -0.5158823 0.8563163 -0.02424716 -0.4349486 0.8869379 -0.1554377 -0.2231476 0.8566063 -0.4652214 -0.2991662 0.8787477 0.37189 -0.3699659 -0.8306906 -0.4160271 -0.7406556 0.409251 -0.532863 -0.8732441 -0.4571142 0.1687939 -0.8764914 -0.4676409 0.1143447 -0.6212893 -0.7817525 -0.05350548 -0.6172836 -0.7843102 -0.06179451 -0.1905451 -0.9467399 0.2595695 -0.8882439 -0.4591751 -0.01345735 -0.8660396 -0.4919356 -0.08930134 -0.04520761 -0.04275244 0.9980624 -0.1244391 -0.06808441 0.9898887 0.2972611 -0.9096233 -0.2902093 -0.1112689 -0.9500871 0.2914685 -0.06493306 -0.9737226 0.2182843 -0.08662587 -0.9828247 0.1629469 -0.013269 -0.9997863 -0.01585656 0.03037291 -0.997214 0.06812989 -0.1808539 -0.9834562 0.01029038 -0.1221537 -0.9912151 -0.05070614 -0.08577042 -0.9961835 0.01618266 -0.1380193 -0.9565241 0.2569288 -0.04358857 -0.853088 0.5199434 -0.1169794 0.9307656 0.3463974 0.02119231 0.9937321 0.1097613 -0.06947374 0.9975099 0.01214414 -0.006026566 0.991348 0.1311215 0.04264974 0.9543477 0.2956373 -0.02973014 0.9975432 0.06343358 0.2682427 0.9462769 0.1805712 0.1701502 0.9788058 -0.1139654 -0.1156224 0.9932481 0.009469211 0.3154023 0.03981649 0.9481225 0.3360563 0.02635508 0.9414731 0.9890392 0.142929 -0.03705072 0.9835608 0.1802865 -0.01024717 0.5057379 0.8484746 0.1559497 0.6516906 0.7584742 -0.004052758 0.9998892 0.01485389 -9.70472e-4 0.9706584 -0.1899646 0.1474306 0.9999102 0.01333224 0.001422643 0.7559051 -0.4010249 -0.5174812 0.7736735 -0.2693715 -0.5734704 0.9423828 -0.152161 -0.2979289 -0.6260586 0.7797719 0.002539694 -0.6333401 0.7736964 0.01655763 -0.7790793 0.541813 -0.3153956 -0.7126153 0.5704013 -0.4084386 -0.7107948 0.6655651 -0.2275828 0.2773787 0.6279605 0.727136 0.9916712 0.06974107 0.1082798 0.7117322 -0.70245 -0.001141965 0.8428931 -0.5376082 -0.02255403 0.6799405 -0.6971588 0.2272679 0.6700087 -0.7060627 0.2292679 0.9356025 0.352799 0.01344686 0.4908746 0.8711279 0.01335656 0.4915283 0.8708232 0.008191823 0.006561994 -0.01982289 0.999782 -0.004566788 -0.001471102 0.9999885 -0.8500007 -0.3001499 0.4329076 -0.8885709 -0.2084283 0.4086556 -0.9840315 -0.1779258 0.004950165 -0.9744248 -0.2216777 0.03681617 -0.4680393 -0.8788319 0.09270185 -0.4975138 -0.8656057 0.05662846 -0.6589468 -0.7327263 0.1700046 -0.6387206 -0.7455348 0.1902994 -0.8098379 -0.5865488 0.01109439 -0.7242841 -0.6691806 0.1661626 -0.9176196 -0.3529886 0.1826843 -0.9803402 -0.1774815 0.08621811 0.0420733 -0.9153382 0.4004821 -0.1459175 -0.9889792 -0.02506726 -0.154689 -0.9874822 -0.03082627 -0.8871826 -0.3072097 0.3442807 -0.8902353 -0.4004787 0.2170214 -0.9383887 0.2503206 0.2382571 -0.5089485 0.2789254 -0.8143539 -0.3291168 -0.486367 -0.8094007 -0.3562906 -0.04639238 -0.9332228 -0.2509056 -0.3263121 -0.9113544 -0.2105649 -0.5076522 -0.835435 -0.1347058 -0.4626232 -0.8762615 -0.0988869 -0.4111469 -0.9061896 -0.09925132 -0.4103384 -0.9065162 -0.1088877 -0.4148174 -0.9033659 -0.08796083 -0.5685195 -0.8179538 0.04114317 -0.4551784 -0.8894492 -0.041628 -0.6178758 -0.7851731 -0.05873739 -0.3943597 -0.9170771 0.7233943 -0.6133296 0.3170606 -0.3510031 -0.6026167 0.7166937 -0.1100514 0.6390607 0.7612425 -0.4983193 0.8669797 0.00489515 -0.4859187 0.8729598 0.04271286 0.07592499 0.9884791 0.1309376 0.08561736 0.9843143 0.1542568 0.07701283 0.9948533 -0.06584858 0.1016125 0.9946228 0.02000844 0.3054819 -0.9517149 0.03032606 0.4173402 -0.9007056 -0.1206517 0.8088145 -0.5869979 0.03539496 0.9088823 -0.3945893 -0.135027 0.9559774 -0.2880287 -0.0560953 0.9485828 -0.08846807 0.3039147 0.9856559 0.1085206 0.1292515 0.894363 0.4471685 -0.01246112 0.8100755 0.5722025 -0.1279144 0.9073464 0.2593058 0.330882 0.7028465 0.7093299 -0.05345952 0.4835979 0.824805 0.2929675 -0.7703003 0.6345171 0.06344693 0.07855743 0.9963272 0.03407222 0.4379341 0.885222 0.1568309 -0.3796392 -0.9251316 0.002374351 -0.2888631 -0.9569509 0.02834427 -0.3305876 -0.943381 -0.02727693 -0.1902408 -0.9708561 0.1457633 -0.2205784 -0.9710102 0.0921123 -0.1479187 -0.9850831 0.08792912 -0.04464918 -0.9966615 0.06835579 -0.06859731 -0.9960477 0.05642062 0.110466 -0.9835243 -0.143099 -0.0579034 -0.9973474 -0.04410821 -0.8673061 0.4942042 -0.05951988 -0.8669672 0.4946373 -0.0608443 -0.8398852 0.5263793 0.1323555 -0.8394594 0.5333481 0.1041534 -2.59772e-4 8.57335e-4 0.9999997 -0.003922164 0.003125548 0.9999874 5.23035e-4 0.001413345 0.9999989 0.003607869 -0.002866804 0.9999895 -0.001093685 -0.00396341 0.9999916 0.003492116 8.1737e-4 0.9999936 -6.1006e-6 -8.27511e-4 0.9999998 -3.89303e-4 -2.54936e-4 1 0.001728415 0.002175271 0.9999961 -0.001001 3.43396e-4 0.9999995 -0.001155674 -0.002148389 0.999997 -6.87632e-4 -0.001725792 0.9999983 -0.02051675 -0.00473392 0.9997783 0.009576737 0.004512965 0.999944 -0.002165436 -0.002560198 0.9999944 -0.005687236 0.003657639 0.9999772 -0.002054572 0.002896726 0.9999937 0.002794265 -0.001742959 0.9999946 5.69995e-4 0.00764501 0.9999706 -5.74994e-4 -0.02070677 0.9997854 -0.08271187 0.152515 0.984834 -0.801891 0.5234548 0.2880384 -0.1476702 -0.05791121 0.9873398 0.7504112 0.3044767 0.586666 0.3787624 0.1082571 0.9191406 -0.199131 -0.9690691 0.1457805 0.0636608 -0.1320255 0.9892001 -0.09521001 -0.4516596 -0.8870956 -0.09701639 -0.03201037 -0.994768 0.9341384 0.3082947 -0.1798328 -0.03032672 -0.02747172 -0.9991625 -0.009679198 -0.002383589 -0.9999504 -0.1624813 -0.04399597 -0.9857303 0.05098372 0.1081719 -0.9928241 0.4450227 -0.0839461 -0.8915761 0.009559214 -0.006915688 -0.9999305 -0.006290376 -0.008451282 -0.9999446 0.3855157 -0.264685 -0.8839229 -0.02706295 -0.05670261 -0.9980244 0.01209944 -0.02805233 -0.9995333 -0.01503491 -0.03636282 -0.9992256 -0.1072713 0.006378293 -0.9942094 -0.01852142 -0.0248894 -0.9995186 0.610374 0.1084855 -0.7846493 0.01778727 -0.1467518 -0.9890135 0.2503963 -0.3217697 -0.9131079 0.02361518 -0.04571163 -0.9986756 0.01416736 -0.06008255 -0.9980929 -0.1480896 0.3939964 -0.9071033 -0.1418176 0.07169139 -0.9872934 -0.02304697 -0.02474838 -0.999428 0.01419073 0.05551105 -0.9983573 0.00134623 0.01437938 -0.9998958 0.6660203 -0.7425866 -0.07058542 0.7029761 -0.7090064 0.05598783 0.09758794 -0.81604 -0.5696976 0.3388847 -0.9396263 -0.04753762 0.1747658 -0.966162 -0.1897045 -0.1596721 -0.9398609 -0.3019379 -0.3311776 -0.9416498 0.0601437 -0.558443 -0.7546808 -0.3443811 -0.8958994 -0.4394079 -0.0654608 -0.9085581 -0.353866 0.2220387 -0.9315305 0.09772032 -0.3502879 -0.9154515 0.397515 -0.0626921 -0.7893376 0.4986197 -0.3582242 -0.4122236 0.8853334 -0.215073 -0.4246073 0.8867259 -0.1828276 0.2174363 0.9655042 -0.1432594 0.2612652 0.9256835 -0.2735887 0.6606788 0.7363842 -0.1457462 0.7295773 0.6713829 0.1302385 0.8222117 0.04049426 -0.5677397 0.9674397 0.2518046 0.02559387 0.5127783 -0.1879397 -0.8376976 -0.678646 0.7202239 -0.1439346 -0.6778676 0.7213906 -0.1417438 -0.3660047 0.9285999 -0.06117832 -0.3887179 0.9128328 -0.1250391 -0.0786677 0.05282777 -0.9955003 -0.01874709 0.07479155 -0.997023 -0.06939774 0.109377 -0.9915749 -0.02551209 -0.309193 -0.9506571 -0.1811992 0.5342115 -0.8257027 -0.3668333 -0.0910809 -0.9258174 0.3428369 0.938039 0.05045801 0.2872952 0.9338574 0.2130066 0.454958 -0.8173388 0.3535117 0.4624261 -0.6609359 0.591038 0.7640559 -0.486144 0.424126 0.8640038 -0.4965867 0.08306092 0.8580654 -0.5130193 0.02313172 0.8422856 -0.5360859 0.05627644 0.01218158 -0.0199114 0.9997276 0.1525022 -0.1022202 0.9830027 -0.04166865 -0.0263468 0.9987841 0.08611392 -0.1116257 0.9900122 0.5856125 -0.8096963 0.0380764 0.02195274 -0.9840998 0.1762547 -0.06096738 0.2438754 -0.9678884 -0.0332424 0.1986756 -0.9795014 -0.4099147 0.2470801 -0.8780214 -0.3053655 0.1159743 -0.9451465 -0.6691538 -0.0460959 -0.741693 0.5305512 0.6810537 -0.5046597 -0.2019158 -0.3059008 -0.9304058 0.08488094 -0.05672723 -0.994775 0.09180516 0.1114446 -0.9895212 0.0290479 0.0530613 -0.9981688 -0.7417463 0.6640289 0.09422451 -0.418879 0.8308177 0.3664456 -0.9754049 0.2047334 0.08166712 -0.9027233 -0.09245836 0.420169 -0.9272104 -0.3698506 0.05908823 -0.7619183 -0.6470124 0.02924871 -0.6102654 -0.6984496 0.3738239 0.2436428 -0.2964072 0.9234614 -0.1191573 0.395683 -0.9106243 0.003886044 0.3812318 -0.9244714 -0.2396699 0.2404571 -0.9406056 -0.2295241 0.1909362 -0.954391 -0.1700323 0.2177314 -0.9610838 -0.04558485 0.1498268 -0.987661 -0.4837378 0.2571657 -0.8365786 0.7690684 -0.6180675 0.1628694 0.8788977 -0.4765268 -0.02147418 -0.7612686 0.6254689 0.1710522 0.9846724 0.1741344 0.009871006 0.9935332 0.09603571 0.06057286 0.3517657 0.9261472 0.1360602 0.3999255 0.9113101 0.09784513 0.9749631 -0.2004027 0.09636241 0.9714381 -0.05407714 0.231049 0.4494591 0.8919864 -0.04844266 0.3757775 0.925874 0.03935432 -0.998834 0.01190125 0.04679 -0.8301017 -0.5009867 0.2448339 0.1934334 0.9714121 -0.1376303 -0.04038798 0.9324741 0.3589723 0.234785 0.9700635 -0.0620712 -0.984095 0.1685689 0.05605185 -0.9639917 0.2368649 -0.1208927 -0.7966169 0.5883966 -0.1385324 -0.9143685 0.3642559 0.1767712 0.3511114 0.9119878 0.2121302 0.8121848 0.5768565 -0.08713531 -0.9965106 -0.06900364 -0.04695826 -0.9603168 -0.2280426 0.1605876 -0.1705511 -0.9715956 0.1640562 -0.7496249 -0.6308866 0.2001122 -0.2025324 -0.9168624 0.3440117 -0.9727978 0.1836355 0.1412182 -0.970831 0.2183495 0.09904867 0.2147595 0.9723876 -0.09132796 0.2026636 0.9776399 -0.05610555 0.9751002 -0.2212044 0.01575928 0.978042 -0.2004623 0.05699706 -0.3814569 -0.922573 0.05787628 -0.1849527 -0.9014138 0.391466 -0.9953016 0.05561143 0.07925963 -0.5795239 -0.7786043 -0.2406813 -0.3976936 -0.906134 -0.1440874 0.08358877 -0.01727068 0.9963508 -0.1075969 0.02425456 0.9938987 -0.02490282 -0.121348 0.9922977 0.007260739 -0.03151559 0.999477 0.9514924 0.01764655 0.307166 0.9942587 0.05008554 0.09455817 0.6389899 -0.5494107 0.5383678 0.9906434 -0.07456469 0.1143062 0.9304311 -0.09125477 0.3549236 0.001899003 -0.002588927 0.9999949 0.006999254 -0.004099845 0.9999672 -0.659749 0.6747126 -0.330899 -0.6418411 0.7641199 -0.06450396 -0.2197451 0.02265572 -0.9752942 -0.04456174 0.08598172 -0.9952996 -0.0696367 -0.08936506 -0.9935617 -0.1682709 -0.1631607 -0.9721438 -0.2979907 0.01929342 -0.9543738 -2.98993e-4 0.1087858 -0.9940652 -0.02659678 -0.006920516 -0.9996223 -0.1349898 -0.06992197 -0.9883768 0.06485331 0.1142649 -0.9913312 0.0117647 0.01451718 -0.9998255 0.00972408 0.02237015 -0.9997025 0.001607477 -0.01007741 -0.999948 0.2891913 0.05671799 -0.9555897 0.6259879 -0.7789233 -0.03765195 0.5864338 -0.8098375 0.01608461 -0.01038736 -0.8444594 -0.5355188 0.3000258 -0.7197567 -0.626047 0.2935951 0.9439781 -0.1506893 0.1302679 0.9909219 -0.03322893 0.1216552 0.9921982 -0.02725821 -0.5870242 0.693126 -0.4183048 0.1091619 0.7313707 -0.6731869 0.07195425 -0.04856437 0.9962249 -0.002153038 0.01485878 0.9998874 0.004098415 0.01266348 0.9999114 0.2435615 -0.1180248 -0.9626775 0.01552671 0.04329663 -0.9989416 -0.06416034 -0.04961425 -0.9967055 -0.1901497 -0.08999204 0.9776219 -0.02301144 -0.04067558 0.9989074 0.02027392 0.07813829 0.9967364 0.1214963 0.1287425 0.9842074 0.1939445 0.1328665 -0.9719733 0.05541354 0.1296506 -0.9900102 -0.009926974 0.2140953 -0.9767624 -0.1058654 0.2171461 -0.9703814 0.8640067 0.1315572 0.4859889 0.8254438 0.08474695 0.5580863 0.3252207 0.8333409 0.4469617 -0.4170297 -0.8017529 -0.4281104 -0.2969667 -0.7632126 -0.5738619 -0.9445089 -0.1152845 -0.3075913 -0.9171351 -0.0500003 -0.395428 0.2649732 0.9626888 -0.05495214 0.2947108 0.9549303 -0.03541159 0.9955248 0.08472359 0.04185968 0.9965408 0.07544356 0.03485417 0.4852608 -0.8743641 -0.003098547 0.4347503 -0.8999741 -0.03223311 0.04314213 0.009820401 -0.9990207 -0.9598624 -0.04442638 0.2769306 -0.1436907 -0.9877422 0.06097841 -0.4076128 -0.8949036 0.1816577 -0.3170729 0.9137054 0.2541799 -0.9966174 -0.05594944 -0.06019592 0.1767826 -0.979168 -0.09989058 0.7575626 -0.6407799 0.1244996 0.822637 -0.529753 0.2064707 0.1578296 -0.985189 -0.06702572 -0.7939512 -0.6008493 0.09285265 -0.6963313 -0.717471 0.01892763 -0.6193011 0.7526311 0.223635 -0.1618993 0.9817275 0.09999907 -0.9477961 0.3188689 0.002288579 -0.7479013 -0.6301499 0.2086982 -0.3800888 -0.9201365 0.09424191 -0.7122462 -0.6654059 0.2234733 -0.9665368 0.256167 -0.01361334 -0.8263835 0.5524275 0.1091527 0.5895935 0.7892533 0.1716358 0.1290765 0.991379 -0.02251857 0.8595256 0.51107 0.004825472 -0.07834511 -0.5708959 -0.817276 -0.596898 0.49041 -0.6349889 -1.44836e-4 9.16943e-5 1 -0.03259277 0.02547705 0.999144 -0.004422843 -0.06837677 0.9976499 -0.1068097 -0.03750884 0.9935718 0.01096129 -0.06878679 0.9975712 -0.01947838 0.02032989 0.9996036 0.003328561 -0.0836488 0.9964898 0.35197 0.004510343 0.9360005 -0.191057 -0.05143523 0.9802304 0.1642439 0.1399959 0.9764349 -0.006379961 -0.07580971 0.997102 -0.1020458 0.1505647 0.9833194 -0.02576714 -0.0174598 0.9995155 -0.01454389 -0.03192275 0.9993845 -0.0691697 -0.06119853 0.9957261 -0.07062435 -0.08313912 0.9940323 -0.03859531 -0.01819789 0.9990893 0.5807911 -0.09479492 0.8085144 0.03184199 -0.02170157 0.9992573 0.01750475 -0.06738805 0.9975733 -0.6478038 -0.06699091 0.7588561 0.05981713 -0.9143169 -0.4005578 -0.831091 -0.5423437 0.1230895 0.2617579 0.949919 0.1706954 0.3173971 -0.1659403 0.9336611 -0.02635675 0.07501983 0.9968338 0.5682616 -0.1387304 0.8110688 -0.8606288 -0.4257673 0.2793571 -0.487219 0.7889901 0.3743159 -0.784752 0.1030151 0.6111893 -0.8533937 0.1897071 0.4855207 -0.8622782 -0.2645893 0.4318203 -0.9362699 -0.1817888 0.3005854 0.9612086 -0.2365504 0.1418517 0.939689 -0.2644059 0.216966 0.5708764 -0.8202908 0.03497701 0.6309847 -0.6036697 0.4872795 -0.7042444 0.6244372 0.3378135 -0.6922659 0.7161543 0.0888319 -0.6739465 0.7363867 0.05942022 -0.1982588 -0.9786147 0.05483412 -0.2361723 -0.9643288 0.1195518 0.2462115 0.9548715 0.1661335 0.2592005 0.9551942 0.1428962 0.8866744 0.4562381 0.07520192 0.8680076 0.4742021 0.1472932 -0.8629624 -0.4806879 0.1556766 -0.8161594 -0.5773509 0.02345442 -0.8394109 -0.5312281 0.1148307 -0.7176595 -0.3686945 0.590787 -0.7176383 -0.3685597 0.5908969 -0.7174524 -0.3684884 0.591167 -0.9249068 -0.3800206 -0.01147729 -0.924846 -0.3801594 -0.01177668 -0.9248948 -0.3800504 -0.01146304 0.3978739 -0.74312 0.5380233 0.5288171 -0.7719905 0.35268 -0.2877898 -0.2816282 0.9153484 0.457265 0.1914773 0.8684729 -0.06674867 -0.6047468 0.7936157 0.1586534 0.1200863 0.9800043 -0.3128027 -0.602823 0.7340021 -0.9841305 0.1589467 -0.07888692 0.5287662 0.2790707 0.8015772 0.372881 0.8758304 -0.3064001 -0.4058968 0.0874409 0.9097263 0.5014195 -0.8110744 0.3012258 -0.1804139 -0.9162033 0.357802 0.342362 0.7016538 0.6248761 -0.8818827 -0.08885407 0.4630204 -0.6015764 -0.222143 0.767306 0.2320402 -0.09658795 0.9678988 -0.007303893 0.1351823 0.9907938 0.3747569 0.09274846 0.9224722 -0.01516276 0.3292532 0.94412 -0.260038 -0.8145266 0.5185815 0.1256801 0.2788935 0.9520626 -0.1395618 -0.380499 0.9141899 0.6337115 -0.6112332 0.4741348 -0.5219255 -0.3195464 0.7908754 0.6138762 0.05681818 0.787355 -0.1457886 -0.8476886 -0.5100685 0.9775612 -0.168623 -0.1262553 -0.4111354 0.6426943 0.6464609 -0.1874083 0.496168 0.8477591 0.3230509 -0.8291763 0.4561851 0.3542549 -0.83556 0.4199321 0.7779513 0.6243876 0.07022809 -0.8695262 0.4516535 0.1998337 0.4148455 0.9087277 0.04601472 0.5464303 0.8372305 -0.02142494 0.4074767 0.8021808 0.4364274 0.7987658 0.5261632 0.291763 0.877753 0.4488013 0.1677115 0.6454805 0.7619939 0.05215793 -0.8127022 -0.5672433 0.1332299 -0.8031075 -0.5757254 0.1534886 0.1598334 -0.1986855 0.9669423 -0.06586039 -0.9875459 0.1428834 -0.9399615 0.3395919 -0.03390955 -0.9872204 -0.08379942 0.1355496 -0.8080901 -0.4267258 0.4060733 -0.9984476 0.007985115 0.05512529 -0.3684614 0.9067484 0.2050452 -0.4663296 0.882824 0.05620217 -0.6510428 0.7519343 0.103625 -0.6091068 0.6942152 0.3834764 -0.6453867 0.6908106 0.3259705 0.6288896 -0.7257633 0.2788648 0.7262589 -0.6862383 0.04031169 0.6320415 -0.6811729 0.3694958 0.6618925 -0.6775131 0.3207403 -0.9172592 -0.2754536 0.2876821 -0.7975825 -0.3309046 0.5043454 0.9112975 0.4108822 0.02669745 0.9118968 0.3735924 0.1699208 -0.1166292 -0.07827287 0.9900864 -0.9505404 0.133936 0.2802397 0.143006 0.2890895 0.9465604 -0.7420582 0.6699975 -0.02128273 -0.3325905 -0.9430504 0.006300091 0.9945359 0.085177 0.06036007 -0.5354143 0.8445879 0.001741766 -0.5347397 0.845013 0.00257045 -0.5354124 0.8445891 0.001733541 -0.8087116 -0.5880341 -0.01420003 0.9934052 -0.08145034 0.08069723 0.3179804 -0.9233418 0.2152401 0.6525841 -0.7306565 0.2006866 -0.931848 -0.3115775 0.1859537 -0.1797443 -0.9831914 0.03204059 -0.09182226 0.966521 0.2395953 0.9946858 0.1009736 0.02011537 0.9946829 0.1010017 0.02011787 0.9946806 0.101024 0.02011924 0.9610286 -0.1918122 0.1990784 0.9610237 -0.191841 0.1990745 0.9610149 -0.1918957 0.1990642 0.002786815 -0.1673511 0.9858934 -0.9826212 -0.1828235 0.03211152 -0.5872814 0.08683943 0.8047109 -0.9097757 -0.4133148 -0.03845834 -0.9097244 -0.4134395 -0.03833061 -0.9097275 -0.4134409 -0.03824168 -0.9724223 -0.2144016 0.091798 -0.9724049 -0.2144751 0.09181058 -0.972501 -0.2141554 0.0915389 -0.003480195 0.1185824 0.9929382 -0.003579914 0.1186208 0.9929332 -0.003343462 0.1184763 0.9929513 0.6633913 0.7010571 0.2615934 0.1621648 0.2368519 0.9579164 -0.04385167 -0.008736073 0.9989999 0.3836563 -0.5550453 0.73806 -0.06943267 -0.996878 0.03759545 -0.06943327 -0.9968773 0.03761506 -0.06943297 -0.9968786 0.03758168 -0.185248 0.6468296 0.7397937 0.2040473 -0.7980599 0.5669789 0.2038196 -0.7981309 0.5669609 0.2039312 -0.7980831 0.5669882 0.2337645 -0.7500009 0.6187511 -0.54082 -0.7822472 0.3091977 -0.5656535 -0.7401297 0.3636541 0.5158347 0.7516582 0.4110046 0.4455307 0.8659218 0.2273369 -0.3975506 0.7073208 0.5845091 0.7436189 0.6663242 -0.05516475 0.0855205 -0.9957813 -0.03325808 0.1733078 -0.9848546 0.005096852 0.1281768 -0.9865699 -0.1012456 0.6627296 0.7477866 -0.04006028 0.7419261 0.6704175 0.009283006 -6.73955e-4 -0.06457531 -0.9979127 0.2386342 -0.9531511 -0.1858948 0.5628935 0.8040007 -0.191661 0.00159049 -0.1230689 -0.9923969 -0.9675416 -0.1053341 0.2297129 -0.4502694 -0.2743059 0.8497139 0.3081432 -0.8224246 0.4781901 -0.5704174 0.7097055 0.4134515 0.6530976 -0.6348986 0.4127559</float_array>
          <technique_common>
            <accessor source="#Mesh-mesh-normals-array" count="1290" stride="3">
              <param name="X" type="float"/>
              <param name="Y" type="float"/>
              <param name="Z" type="float"/>
            </accessor>
          </technique_common>
        </source>
        <vertices id="Mesh-mesh-vertices">
          <input semantic="POSITION" source="#Mesh-mesh-positions"/>
        </vertices>
        <triangles material="Mesh-material" count="1258">
          <input semantic="VERTEX" source="#Mesh-mesh-vertices" offset="0"/>
          <input semantic="NORMAL" source="#Mesh-mesh-normals" offset="1"/>
          <p>50 0 48 0 47 0 48 1 49 1 47 1 49 2 50 2 47 2 51 3 53 3 52 3 53 4 54 4 52 4 54 5 51 5 52 5 50 6 56 6 365 6 48 7 365 7 55 7 48 8 50 8 365 8 48 9 55 9 368 9 48 10 368 10 369 10 49 11 48 11 369 11 56 12 49 12 369 12 50 13 49 13 56 13 54 14 46 14 57 14 51 15 54 15 57 15 51 16 57 16 363 16 51 17 588 17 44 17 51 18 363 18 588 18 53 19 51 19 44 19 46 20 44 20 45 20 53 21 44 21 46 21 54 22 53 22 46 22 58 23 59 23 61 23 59 24 60 24 61 24 60 25 58 25 61 25 62 26 63 26 65 26 63 27 64 27 65 27 64 28 62 28 65 28 72 29 73 29 573 29 345 30 88 30 89 30 575 31 91 31 90 31 91 32 294 32 90 32 58 33 92 33 586 33 58 34 586 34 561 34 59 35 58 35 561 35 59 36 561 36 67 36 59 37 67 37 559 37 59 38 559 38 66 38 60 39 59 39 66 39 60 40 66 40 92 40 58 41 60 41 92 41 93 42 105 42 94 42 94 43 105 43 95 43 105 44 96 44 95 44 95 45 96 45 7 45 96 46 93 46 7 46 7 47 93 47 94 47 100 48 99 48 97 48 99 49 106 49 97 49 97 50 106 50 11 50 106 51 98 51 11 51 98 52 99 52 11 52 11 53 99 53 100 53 122 54 102 54 123 54 102 55 401 55 24 55 24 56 401 56 104 56 104 57 122 57 123 57 527 58 16 58 124 58 129 59 527 59 124 59 131 60 124 60 15 60 131 61 129 61 124 61 130 62 125 62 126 62 125 63 127 63 126 63 126 64 127 64 128 64 127 65 129 65 128 65 128 66 129 66 130 66 129 67 131 67 130 67 131 68 125 68 130 68 414 69 133 69 215 69 215 70 133 70 217 70 133 71 132 71 217 71 132 72 415 72 414 72 134 73 7 73 413 73 93 74 134 74 413 74 105 75 93 75 413 75 96 76 105 76 428 76 96 77 428 77 133 77 134 78 96 78 133 78 134 79 133 79 7 79 98 80 106 80 109 80 98 81 109 81 112 81 98 82 112 82 107 82 99 83 98 83 107 83 106 84 99 84 107 84 163 85 139 85 108 85 142 86 136 86 143 86 143 87 136 87 144 87 136 88 145 88 144 88 144 89 145 89 146 89 145 90 142 90 146 90 146 91 142 91 143 91 150 92 147 92 12 92 135 93 147 93 150 93 12 94 148 94 149 94 147 95 148 95 12 95 149 96 148 96 150 96 148 97 135 98 150 99 137 100 151 101 153 102 151 103 152 104 153 105 152 106 137 106 153 106 157 107 154 107 140 107 140 108 154 108 155 108 154 109 156 109 155 109 155 110 156 110 141 110 156 111 157 111 141 111 141 112 157 112 140 112 138 113 159 113 158 113 158 114 159 114 160 114 159 115 161 115 160 115 160 116 161 116 162 116 162 117 138 117 158 117 161 118 138 118 162 118 163 119 164 119 14 119 14 120 164 120 435 120 435 121 164 121 165 121 164 122 139 122 165 122 165 123 139 123 14 123 139 124 163 124 14 124 166 125 167 125 168 125 167 126 169 126 168 126 169 127 166 127 168 127 171 128 172 128 152 128 171 129 152 129 397 129 151 130 397 130 152 130 397 131 68 131 69 131 151 132 137 132 170 132 68 133 151 133 596 133 68 134 397 134 151 134 596 135 151 135 170 135 381 136 84 136 173 136 173 137 138 137 161 137 138 138 173 138 70 138 381 139 173 139 161 139 381 140 161 140 159 140 159 141 443 141 382 141 382 142 381 142 159 142 372 143 174 143 156 143 86 144 372 144 156 144 154 145 86 145 156 145 175 146 86 146 154 146 154 147 157 147 175 147 387 148 587 148 169 148 387 149 169 149 167 149 587 150 446 150 169 150 167 151 166 151 526 151 526 152 387 152 167 152 179 153 176 153 178 153 178 154 176 154 180 154 176 155 177 155 180 155 180 156 177 156 178 156 177 157 179 157 178 157 185 158 181 158 182 158 181 159 183 159 182 159 183 160 184 160 182 160 182 161 184 161 185 161 184 162 181 162 185 162 17 163 18 163 186 163 186 164 18 164 187 164 18 165 20 165 187 165 187 166 20 166 186 166 20 167 17 167 186 167 448 168 188 168 524 168 448 169 524 169 450 169 196 170 448 170 450 170 196 171 450 171 449 171 197 172 196 172 449 172 197 173 449 173 521 173 447 174 197 174 521 174 447 175 521 175 189 175 18 176 198 176 487 176 18 177 17 177 198 177 19 178 18 178 487 178 19 179 487 179 251 179 20 180 19 180 251 180 20 181 251 181 199 181 21 182 20 182 199 182 21 183 199 183 489 183 17 184 21 184 489 184 17 185 489 185 198 185 204 186 208 186 511 186 511 187 208 187 209 187 208 188 515 188 209 188 208 189 26 189 515 189 515 190 26 190 210 190 26 191 359 191 210 191 210 192 359 192 211 192 359 193 510 193 211 193 353 194 323 194 212 194 213 195 353 195 212 195 213 196 212 196 214 196 213 197 214 197 328 197 329 198 213 198 328 198 24 199 22 199 123 199 22 200 23 200 123 200 128 201 16 201 126 201 130 202 16 202 128 202 218 203 220 203 219 203 220 204 221 204 219 204 221 205 218 205 219 205 225 206 223 206 222 206 223 207 224 207 222 207 224 208 225 208 222 208 247 209 227 209 226 209 227 210 246 211 226 212 246 213 247 213 226 213 228 214 248 214 229 214 248 215 230 215 229 215 230 216 228 216 229 216 239 217 240 217 244 217 240 218 241 218 242 218 241 219 243 219 242 219 242 220 243 220 244 220 243 221 239 221 244 221 245 222 220 222 218 222 220 223 83 223 221 223 380 224 83 224 220 224 245 225 85 225 220 225 380 226 220 226 85 226 234 227 238 227 231 227 238 228 235 228 231 228 231 229 235 229 232 229 235 230 221 230 232 230 221 231 236 231 232 231 232 232 236 232 233 232 236 233 237 233 233 233 233 234 237 234 234 234 237 235 238 235 234 235 81 236 225 236 224 236 81 237 79 237 225 237 80 238 224 238 223 238 80 239 81 239 224 239 385 240 246 240 227 240 385 241 386 241 246 241 384 242 227 242 247 242 384 243 385 243 227 243 230 244 371 244 228 244 388 245 248 245 228 245 581 246 388 246 228 246 581 247 228 247 371 247 296 248 262 248 297 248 299 249 298 249 259 249 260 250 261 250 300 250 261 251 301 251 300 251 262 252 295 252 301 252 295 253 262 253 296 253 282 254 264 254 263 254 264 255 266 255 265 255 277 256 266 256 264 256 279 257 280 257 268 257 282 258 263 258 269 258 327 259 328 259 214 259 325 260 271 260 324 260 324 261 271 261 270 261 325 262 272 262 271 262 274 263 326 263 275 263 327 264 275 264 276 264 266 265 267 265 265 265 200 266 548 266 119 266 200 267 201 267 548 267 548 268 201 268 118 268 201 269 202 269 118 269 202 270 203 270 118 270 118 271 203 271 117 271 203 272 204 272 117 272 117 273 204 273 303 273 303 274 205 274 120 274 204 275 205 275 303 275 120 276 205 276 550 276 205 277 206 277 550 277 206 278 207 278 550 278 550 279 207 279 416 279 207 280 516 280 416 280 516 281 200 281 416 281 416 282 200 282 119 282 34 283 35 283 91 283 34 284 91 284 289 284 34 285 289 285 290 285 33 286 34 286 290 286 33 287 290 287 291 287 37 288 33 288 291 288 37 289 291 289 292 289 36 290 292 290 293 290 36 291 37 291 292 291 36 292 293 292 294 292 35 293 36 293 294 293 35 294 294 294 91 294 101 295 537 295 38 295 101 296 38 296 42 296 539 297 42 297 43 297 303 298 120 298 39 298 534 299 303 299 39 299 303 300 535 300 407 300 303 301 534 301 535 301 457 302 38 302 537 302 457 303 552 303 38 303 542 304 101 304 42 304 542 305 304 305 101 305 539 306 542 306 42 306 41 307 305 307 43 307 41 308 302 308 305 308 306 309 302 309 41 309 419 310 306 310 41 310 419 311 41 311 40 311 40 312 120 312 532 312 532 313 419 313 40 313 263 314 264 314 286 314 263 315 286 315 6 315 269 316 263 316 6 316 281 317 269 317 6 317 281 318 6 318 5 318 280 319 5 319 285 319 280 320 281 320 5 320 280 321 285 321 284 321 268 322 280 322 284 322 278 323 268 323 284 323 278 324 284 324 283 324 267 325 278 325 283 325 267 326 283 326 288 326 265 327 267 327 288 327 287 328 265 328 288 328 287 329 264 329 265 329 264 330 287 330 286 330 275 331 327 331 264 331 282 332 275 332 264 332 282 333 274 333 275 333 269 334 274 334 282 334 281 335 274 335 269 335 281 336 273 336 274 336 281 337 272 337 273 337 280 338 272 338 281 338 280 339 271 339 272 339 271 340 280 340 279 340 279 341 270 341 271 341 270 342 279 342 278 342 278 343 323 343 270 343 323 344 278 344 267 344 267 345 212 345 323 345 266 346 212 346 267 346 266 347 214 347 212 347 214 348 266 348 277 348 277 349 327 349 214 349 264 350 327 350 277 350 35 351 34 351 309 351 309 352 34 352 307 352 34 353 33 353 307 353 307 354 33 354 308 354 33 355 37 355 308 355 308 356 36 356 309 356 37 357 36 357 308 357 36 358 35 358 309 358 313 359 38 359 310 359 38 360 39 360 310 360 310 361 39 361 311 361 39 362 40 362 311 362 40 363 41 363 311 363 311 364 41 364 312 364 41 365 42 365 312 365 312 366 42 366 313 366 42 367 38 367 313 367 297 368 259 368 314 368 314 369 259 369 3 369 259 370 298 370 3 370 3 371 298 371 2 371 298 372 299 372 2 372 2 373 299 373 315 373 299 374 260 374 315 374 260 375 300 375 315 375 315 376 300 376 316 376 300 377 301 377 316 377 301 378 295 378 316 378 316 379 295 379 4 379 295 380 296 380 4 380 4 381 296 381 314 381 296 382 297 382 314 382 258 383 252 383 262 383 262 384 252 384 297 384 297 385 252 385 259 385 252 386 253 386 259 386 259 387 253 387 299 387 253 388 254 388 299 388 299 389 254 389 260 389 254 390 255 390 260 390 260 391 255 391 261 391 255 392 256 392 261 392 256 393 257 393 261 393 261 394 257 394 301 394 301 395 257 395 262 395 257 396 258 396 262 396 459 397 317 397 250 397 459 398 318 398 317 398 249 399 318 399 459 399 358 400 319 400 320 400 4 401 314 401 3 401 2 402 315 402 1 402 1 403 315 403 6 403 315 404 316 404 6 404 6 405 316 405 5 405 316 406 4 406 5 406 233 407 244 407 232 407 244 408 240 408 232 408 232 409 240 409 231 409 231 410 240 410 234 410 240 411 242 411 234 411 242 412 244 412 234 412 234 413 244 413 233 413 329 414 328 414 327 414 497 415 329 415 327 415 331 416 330 416 273 416 331 417 273 417 325 417 331 418 325 418 324 418 332 419 331 419 324 419 243 420 332 420 324 420 243 421 324 421 270 421 353 422 270 422 323 422 353 423 243 423 270 423 497 424 327 424 276 424 496 425 497 425 276 425 496 426 276 426 326 426 492 427 326 427 333 427 326 428 492 428 496 428 333 429 326 429 274 429 333 430 274 430 273 430 330 431 333 431 273 431 412 432 335 432 558 432 558 433 336 433 428 433 335 434 336 434 558 434 428 435 336 435 132 435 132 436 336 436 334 436 334 437 336 437 337 437 337 438 336 438 164 438 343 439 338 439 252 439 252 440 338 440 253 440 338 441 373 441 253 441 253 442 373 442 254 442 373 443 339 443 254 443 339 444 340 444 254 444 254 445 340 445 255 445 340 446 341 446 255 446 255 447 341 447 256 447 341 448 342 448 256 448 256 449 342 449 257 449 342 450 88 450 257 450 257 451 88 451 258 451 88 452 343 452 258 452 258 453 343 453 252 453 62 454 74 454 344 454 63 455 62 455 344 455 63 456 344 456 582 456 63 457 582 457 562 457 64 458 63 458 562 458 64 459 562 459 345 459 62 460 345 460 74 460 62 461 64 461 345 461 347 462 238 463 346 464 238 465 237 465 346 465 237 466 347 466 346 466 349 467 348 467 237 467 392 468 237 468 236 468 392 469 349 469 237 469 236 470 350 470 392 470 236 471 221 471 83 471 236 472 83 472 351 472 91 473 556 473 411 473 352 474 91 474 411 474 289 475 91 475 352 475 423 476 289 476 541 476 290 477 289 477 423 477 290 478 423 478 422 478 291 479 290 479 422 479 535 480 291 480 406 480 534 481 291 481 535 481 340 482 375 482 341 482 572 483 375 483 340 483 341 484 394 484 342 484 394 485 72 485 342 485 72 486 88 486 342 486 72 487 573 487 88 487 75 488 395 488 73 488 362 489 75 489 73 489 8 490 144 490 354 490 355 491 8 491 354 491 8 492 143 492 144 492 9 493 143 493 8 493 9 494 146 494 143 494 94 495 144 495 146 495 94 496 95 496 144 496 217 497 144 497 95 497 7 498 217 498 95 498 215 499 217 499 7 499 216 500 215 500 7 500 121 501 355 501 354 501 16 502 121 502 354 502 356 503 217 503 216 503 356 504 165 504 217 504 126 505 16 505 354 505 435 506 165 506 356 506 130 507 124 507 16 507 430 508 216 508 7 508 430 509 7 509 456 509 426 510 355 510 121 510 426 511 10 511 355 511 200 512 456 512 10 512 201 513 200 513 10 513 15 514 124 514 130 514 15 515 130 515 126 515 516 516 456 516 200 516 150 517 165 517 14 517 490 518 15 518 126 518 516 519 430 519 456 519 201 520 10 520 426 520 202 521 201 521 426 521 516 522 454 522 430 522 149 523 150 523 14 523 207 524 454 524 516 524 202 525 426 525 421 525 203 526 202 526 421 526 454 527 207 527 206 527 320 528 421 528 15 528 321 529 421 529 320 529 320 530 15 530 490 530 13 531 150 531 12 531 321 532 203 532 421 532 357 533 150 533 13 533 322 534 203 534 321 534 322 535 512 535 203 535 455 536 454 536 206 536 455 537 206 537 205 537 592 538 358 538 320 538 592 539 320 539 490 539 594 540 150 540 357 540 110 541 594 541 357 541 28 542 319 542 358 542 513 543 322 543 319 543 513 544 319 544 28 544 513 545 512 545 322 545 100 546 594 546 110 546 100 547 110 547 11 547 97 548 11 548 455 548 100 549 97 549 455 549 205 550 100 550 455 550 22 551 359 551 27 551 360 552 517 552 513 552 360 553 26 553 517 553 23 554 22 554 27 554 25 555 360 555 513 555 514 556 359 556 22 556 514 557 22 557 24 557 514 558 24 558 23 558 595 559 514 559 23 559 595 560 360 560 591 560 595 561 26 561 360 561 595 562 27 562 26 562 595 563 23 563 27 563 30 564 25 564 513 564 213 565 29 565 30 565 213 566 30 566 513 566 32 567 213 567 513 567 32 568 513 568 28 568 353 569 32 569 593 569 361 570 362 570 369 570 361 571 75 571 362 571 542 572 363 572 304 572 304 573 363 573 538 573 542 574 588 574 363 574 363 575 589 575 538 575 367 576 55 576 365 576 367 577 365 577 366 577 364 578 367 578 366 578 368 579 563 579 562 579 55 580 563 580 368 580 571 581 391 581 556 581 391 582 571 583 349 584 392 585 391 585 349 585 571 586 348 586 349 586 348 587 370 587 390 587 370 588 345 588 562 588 562 589 369 589 368 589 79 590 82 590 576 590 81 591 389 591 79 591 79 592 389 592 82 592 501 593 78 593 502 593 76 594 80 594 78 594 76 595 81 595 80 595 367 596 372 596 86 596 88 597 345 597 343 597 345 598 370 598 343 598 370 599 348 599 343 599 343 600 348 600 338 600 348 601 571 601 338 601 534 602 292 602 291 602 544 603 405 603 293 603 101 604 405 604 537 604 537 605 405 605 544 605 43 606 374 606 539 606 374 607 397 607 533 607 399 608 397 608 540 608 540 609 397 609 374 609 572 610 376 610 375 610 378 611 379 611 381 611 381 612 379 612 84 612 379 613 380 613 84 613 380 614 85 614 84 614 509 615 580 615 498 615 498 616 580 616 568 616 580 617 579 617 568 617 382 618 554 618 381 618 381 619 554 619 378 619 506 620 383 620 371 620 385 621 384 621 568 621 384 622 498 622 568 622 568 623 77 623 385 623 385 624 77 624 386 624 386 625 77 625 501 625 371 626 387 626 581 626 526 627 509 627 507 627 526 628 581 628 387 628 526 629 388 629 581 629 526 630 507 630 388 630 81 631 390 631 370 631 81 632 76 632 390 632 389 633 81 633 370 633 582 634 344 634 565 634 565 635 75 635 361 635 565 636 361 636 369 636 566 637 55 637 87 637 563 638 55 638 566 638 55 639 367 639 87 639 87 640 367 640 86 640 347 641 76 641 238 641 390 642 347 642 237 642 237 643 348 643 390 643 347 644 390 644 76 644 68 645 67 645 69 645 69 646 67 646 393 646 170 647 495 647 66 647 375 648 394 648 341 648 377 649 394 649 375 649 74 650 75 650 344 650 344 651 75 651 565 651 395 652 75 652 74 652 557 653 125 653 553 653 399 654 540 654 122 654 122 655 540 655 400 655 302 656 401 656 103 656 302 657 102 657 305 657 103 658 102 658 302 658 106 659 104 659 401 659 107 660 104 660 106 660 102 661 400 661 305 661 122 662 400 662 102 662 302 663 106 663 401 663 410 664 172 664 171 664 410 665 171 665 397 665 410 666 397 666 399 666 410 667 399 667 402 667 45 668 543 668 46 668 46 669 543 669 404 669 404 670 533 670 403 670 538 671 589 671 403 671 538 672 403 672 405 672 551 673 407 673 406 673 407 674 535 674 406 674 294 675 293 675 408 675 585 676 409 676 398 676 558 677 413 677 412 677 412 678 413 678 525 678 415 679 430 679 414 679 430 680 529 680 414 680 430 681 416 681 529 681 417 682 416 682 430 682 416 683 417 683 550 683 417 684 420 684 550 684 550 685 420 685 419 685 111 686 437 686 418 686 420 687 306 687 419 687 437 688 110 688 418 688 420 689 109 689 306 689 437 690 113 690 110 690 110 691 113 691 109 691 109 692 113 692 112 692 116 693 121 693 527 693 527 694 127 694 116 694 116 695 426 695 121 695 547 696 458 696 528 696 530 697 546 697 426 697 426 698 546 698 421 698 421 699 422 699 423 699 421 700 423 700 547 700 547 701 423 701 458 701 546 702 422 702 421 702 423 703 541 703 458 703 116 704 530 704 426 704 115 705 424 705 432 705 432 706 424 706 444 706 424 707 433 707 444 707 456 708 548 708 114 708 456 709 529 709 548 709 548 710 530 710 114 710 530 711 444 711 114 711 114 712 444 712 433 712 425 713 529 713 456 713 415 714 549 714 216 714 216 715 549 715 356 715 146 716 9 716 525 716 146 717 525 717 413 717 94 718 146 718 413 718 7 719 94 719 413 719 16 720 527 720 121 720 549 721 427 721 356 721 429 722 133 722 428 722 337 723 549 723 334 723 337 724 427 724 549 724 216 725 430 725 415 725 456 726 7 726 425 726 432 727 136 727 115 727 431 728 136 728 432 728 433 729 424 729 355 729 355 730 424 730 8 730 357 731 418 731 110 731 434 732 14 732 435 732 14 733 434 733 149 733 434 734 439 734 149 734 436 735 437 735 135 735 135 736 437 736 111 736 438 737 437 737 436 737 108 738 139 738 440 738 440 739 139 739 148 739 434 740 440 740 439 740 108 741 440 741 434 741 112 742 438 742 436 742 107 743 112 743 436 743 396 744 107 744 436 744 104 745 107 745 396 745 152 746 396 746 436 746 402 747 396 747 152 747 172 748 410 748 402 748 172 749 402 749 152 749 170 750 137 750 377 750 441 751 377 751 137 751 442 752 377 752 441 752 444 753 431 753 432 753 382 754 443 754 554 754 554 755 443 755 553 755 557 756 553 756 443 756 431 757 444 757 443 757 443 758 444 758 557 758 509 759 445 759 580 759 445 760 138 760 580 760 580 761 138 761 70 761 446 762 86 762 175 762 86 763 446 763 87 763 175 764 169 764 446 764 157 765 169 765 175 765 526 766 445 766 509 766 166 767 445 767 526 767 477 768 524 768 188 768 477 769 519 769 478 769 477 770 188 770 519 770 181 771 524 771 477 771 181 772 450 772 524 772 448 773 519 773 188 773 189 774 486 774 447 774 447 775 486 775 520 775 189 776 183 776 486 776 521 777 183 777 189 777 520 778 197 778 447 778 196 779 197 779 448 779 451 780 179 780 522 780 362 781 73 781 452 781 518 782 452 782 364 782 73 783 453 783 452 783 452 784 453 784 364 784 417 785 430 785 454 785 417 786 454 786 455 786 420 787 417 787 455 787 552 788 457 788 545 788 457 789 536 789 545 789 236 790 555 790 411 790 556 791 236 791 411 791 351 792 380 792 236 792 391 793 350 793 236 793 554 794 553 794 125 794 125 795 378 795 554 795 378 796 125 796 458 796 458 797 379 797 378 797 555 798 380 798 379 798 555 799 379 799 458 799 236 800 380 800 555 800 236 801 556 801 391 801 235 802 245 802 218 802 235 803 77 803 245 803 235 804 501 804 77 804 78 805 235 805 238 805 78 806 501 806 235 806 238 807 76 807 78 807 250 808 251 808 141 808 155 809 250 809 140 809 155 810 459 810 250 810 249 811 459 811 485 811 460 812 249 812 485 812 461 813 460 813 485 813 483 814 461 814 485 814 462 815 461 815 483 815 462 816 483 816 158 816 463 817 462 817 158 817 464 818 160 818 481 818 464 819 463 819 160 819 465 820 464 820 481 820 40 821 39 821 120 821 39 822 38 822 534 822 41 823 43 823 42 823 467 824 466 824 468 824 467 825 441 825 466 825 491 826 466 826 441 826 436 827 491 827 441 827 470 828 493 828 491 828 470 829 491 829 436 829 469 830 473 830 431 830 472 831 473 831 469 831 472 832 336 832 473 832 336 833 472 833 474 833 336 834 474 834 475 834 475 835 164 835 336 835 0 836 164 836 475 836 476 837 0 837 482 837 476 838 482 838 477 838 476 839 164 839 0 839 476 840 477 840 478 840 478 841 436 841 476 841 436 842 520 842 486 842 436 843 486 843 470 843 520 844 436 844 478 844 445 845 249 845 460 845 445 846 460 846 461 846 445 847 318 847 249 847 462 848 443 848 445 848 462 849 445 849 461 849 443 850 462 850 463 850 464 851 431 851 443 851 464 852 443 852 463 852 431 853 464 853 465 853 431 854 465 854 469 854 250 855 317 855 479 855 199 856 250 856 479 856 467 857 479 857 317 857 468 858 479 858 467 858 473 859 136 859 431 859 336 860 335 860 473 860 335 861 136 861 473 861 335 862 145 862 136 862 159 863 138 863 443 863 164 864 476 864 139 864 138 865 445 865 443 865 476 866 148 866 139 866 148 867 147 867 480 867 476 868 135 868 148 868 135 869 476 869 436 869 445 870 166 870 318 870 166 871 169 871 318 871 169 872 317 872 318 872 157 873 317 873 169 873 156 874 174 874 157 874 174 875 317 875 157 875 174 876 467 876 317 876 436 877 441 877 137 877 436 878 137 878 152 878 321 879 320 879 307 879 308 880 321 880 307 880 308 881 322 881 321 881 320 882 309 882 307 882 319 883 309 883 320 883 308 884 309 884 322 884 322 885 309 885 319 885 481 886 469 886 465 886 239 887 162 887 158 887 239 888 160 888 162 888 239 889 481 889 160 889 477 890 482 890 474 890 240 891 239 891 158 891 240 892 158 892 483 892 241 893 240 893 483 893 243 894 353 894 239 894 243 895 241 895 484 895 213 896 32 896 353 896 486 897 477 897 470 897 332 898 243 898 484 898 488 899 332 899 484 899 488 900 485 900 459 900 331 901 332 901 488 901 329 902 29 902 213 902 155 903 488 903 459 903 329 904 471 904 29 904 487 905 331 905 488 905 487 906 488 906 155 906 198 907 331 907 487 907 141 908 487 908 155 908 489 909 331 909 198 909 497 910 471 910 329 910 330 911 331 911 489 911 29 912 471 912 591 912 591 913 471 913 595 913 471 914 470 914 595 914 595 915 470 915 514 915 514 916 470 916 100 916 100 917 470 917 594 917 470 918 477 918 594 918 594 919 477 919 150 919 150 920 477 920 165 920 477 921 474 921 165 921 165 922 474 922 217 922 474 923 472 923 217 923 217 924 472 924 144 924 472 925 469 925 144 925 144 926 469 926 354 926 469 927 481 927 354 927 354 928 481 928 126 928 126 929 481 929 490 929 481 930 239 930 490 930 239 931 353 931 490 931 490 932 593 932 592 932 353 933 593 933 490 933 333 934 199 934 479 934 333 935 479 935 492 935 493 936 496 936 492 936 493 937 492 937 491 937 468 938 492 938 479 938 466 939 491 939 492 939 466 940 492 940 468 940 268 941 278 941 279 941 326 942 276 942 275 942 325 943 273 943 272 943 545 944 293 944 292 944 552 945 545 945 292 945 441 946 467 946 442 946 442 947 467 947 494 947 453 948 494 948 467 948 174 949 453 949 467 949 372 950 453 950 174 950 372 951 364 951 453 951 377 952 442 952 394 952 72 953 494 953 453 953 394 954 442 954 72 954 72 955 442 955 494 955 376 956 495 956 377 956 377 957 495 957 170 957 3 958 283 958 284 958 4 959 3 959 284 959 3 960 288 960 283 960 2 961 288 961 3 961 2 962 287 962 288 962 285 963 4 963 284 963 1 964 287 964 2 964 5 965 4 965 285 965 286 966 287 966 1 966 286 967 1 967 6 967 338 968 294 968 373 968 373 969 294 969 408 969 408 970 409 970 373 970 373 971 409 971 339 971 409 972 585 972 339 972 585 973 586 973 339 973 586 974 340 974 339 974 364 975 372 975 367 975 496 976 493 976 497 976 471 977 497 977 493 977 330 978 199 978 333 978 330 979 489 979 199 979 487 980 141 980 251 980 470 981 471 981 493 981 199 982 251 982 250 982 498 983 247 983 499 983 384 984 247 984 498 984 386 985 247 985 246 985 386 986 500 986 247 986 501 987 500 987 386 987 502 988 500 988 501 988 502 989 503 989 500 989 78 990 503 990 502 990 78 991 504 991 503 991 80 992 223 992 504 992 80 993 504 993 78 993 225 994 79 994 576 994 225 995 576 995 223 995 71 996 223 996 576 996 71 997 505 997 223 997 82 998 71 998 576 998 567 999 383 999 506 999 567 1000 506 1000 248 1000 505 1001 71 1001 567 1001 505 1002 567 1002 248 1002 506 1003 371 1003 248 1003 248 1004 371 1004 230 1004 248 1005 388 1005 507 1005 248 1006 507 1006 508 1006 509 1007 498 1007 499 1007 508 1008 507 1008 509 1008 508 1009 509 1009 499 1009 500 1010 241 1010 483 1010 500 1011 483 1011 499 1011 499 1012 485 1012 508 1012 483 1013 485 1013 499 1013 485 1014 488 1014 508 1014 508 1015 488 1015 505 1015 488 1016 484 1016 505 1016 505 1017 484 1017 504 1017 484 1018 503 1018 504 1018 484 1019 241 1019 503 1019 503 1020 241 1020 500 1020 508 1021 505 1021 248 1021 500 1022 499 1022 247 1022 505 1023 504 1023 223 1023 221 1024 235 1024 218 1024 455 1025 11 1025 109 1025 455 1026 109 1026 420 1026 15 1027 421 1027 547 1027 355 1028 10 1028 114 1028 355 1029 114 1029 433 1029 311 1030 312 1030 310 1030 310 1031 312 1031 313 1031 510 1032 204 1032 511 1032 510 1033 511 1033 211 1033 512 1034 204 1034 203 1034 204 1035 510 1035 205 1035 208 1036 204 1036 512 1036 517 1037 208 1037 512 1037 26 1038 208 1038 517 1038 26 1039 27 1039 359 1039 514 1040 205 1040 359 1040 359 1041 205 1041 510 1041 512 1042 513 1042 517 1042 209 1043 211 1043 511 1043 515 1044 211 1044 209 1044 515 1045 210 1045 211 1045 514 1046 100 1046 205 1046 474 1047 193 1047 194 1047 474 1048 194 1048 475 1048 176 1049 193 1049 474 1049 176 1050 451 1050 193 1050 179 1051 523 1051 522 1051 523 1052 482 1052 195 1052 195 1053 482 1053 0 1053 523 1054 177 1054 482 1054 179 1055 177 1055 523 1055 191 1056 194 1056 190 1056 192 1057 194 1057 191 1057 192 1058 195 1058 194 1058 176 1059 179 1059 451 1059 21 1060 17 1060 20 1060 19 1061 20 1061 18 1061 366 1062 518 1062 364 1062 365 1063 518 1063 366 1063 448 1064 197 1064 519 1064 519 1065 197 1065 520 1065 449 1066 450 1066 181 1066 449 1067 181 1067 184 1067 521 1068 449 1068 184 1068 521 1069 184 1069 183 1069 0 1070 194 1070 195 1070 194 1071 0 1071 475 1071 519 1072 520 1072 478 1072 486 1073 183 1073 477 1073 183 1074 181 1074 477 1074 176 1075 482 1075 177 1075 482 1076 176 1076 474 1076 522 1077 195 1077 192 1077 522 1078 523 1078 195 1078 522 1079 192 1079 190 1079 451 1080 522 1080 190 1080 451 1081 190 1081 194 1081 193 1082 451 1082 194 1082 192 1083 191 1083 190 1083 434 1084 435 1084 427 1084 427 1085 337 1085 164 1085 427 1086 164 1086 163 1086 434 1087 163 1087 108 1087 434 1088 427 1088 163 1088 12 1089 149 1089 439 1089 480 1090 440 1090 148 1090 439 1091 440 1091 480 1091 12 1092 439 1092 480 1092 147 1093 13 1093 480 1093 13 1094 12 1094 480 1094 418 1095 147 1095 135 1095 418 1096 135 1096 111 1096 418 1097 13 1097 147 1097 424 1098 136 1098 142 1098 424 1099 115 1099 136 1099 8 1100 424 1100 142 1100 9 1101 8 1101 142 1101 9 1102 142 1102 145 1102 525 1103 145 1103 335 1103 525 1104 9 1104 145 1104 525 1105 335 1105 412 1105 158 1106 160 1106 463 1106 141 1107 140 1107 250 1107 96 1108 134 1108 93 1108 132 1109 133 1109 429 1109 444 1110 116 1110 557 1110 133 1111 414 1111 425 1111 116 1112 127 1112 557 1112 132 1113 334 1113 415 1113 127 1114 125 1114 557 1114 527 1115 129 1115 127 1115 131 1116 528 1116 125 1116 528 1117 458 1117 125 1117 414 1118 529 1118 425 1118 529 1119 119 1119 548 1119 548 1120 118 1120 530 1120 416 1121 119 1121 529 1121 530 1122 118 1122 546 1122 118 1123 551 1123 546 1123 117 1124 551 1124 118 1124 117 1125 303 1125 551 1125 444 1126 530 1126 116 1126 401 1127 102 1127 103 1127 13 1128 418 1128 357 1128 110 1129 109 1129 11 1129 133 1130 425 1130 7 1130 406 1131 291 1131 551 1131 302 1132 109 1132 106 1132 306 1133 109 1133 302 1133 428 1134 105 1134 558 1134 411 1135 531 1135 352 1135 396 1136 402 1136 399 1136 293 1137 405 1137 408 1137 408 1138 405 1138 409 1138 405 1139 533 1139 409 1139 409 1140 533 1140 398 1140 545 1141 536 1141 544 1141 293 1142 545 1142 544 1142 374 1143 533 1143 543 1143 533 1144 404 1144 543 1144 397 1145 398 1145 533 1145 397 1146 393 1146 398 1146 397 1147 69 1147 393 1147 536 1148 537 1148 544 1148 536 1149 457 1149 537 1149 101 1150 538 1150 405 1150 304 1151 538 1151 101 1151 43 1152 400 1152 540 1152 305 1153 400 1153 43 1153 543 1154 45 1154 374 1154 588 1155 539 1155 44 1155 588 1156 542 1156 539 1156 539 1157 374 1158 44 1159 44 1160 374 1161 45 1162 399 1163 122 1163 396 1163 122 1164 104 1164 396 1164 531 1165 289 1165 352 1165 546 1166 551 1166 291 1166 546 1167 291 1167 422 1167 550 1168 532 1168 120 1168 534 1169 38 1169 292 1169 38 1170 552 1170 292 1170 458 1171 541 1171 531 1171 131 1172 15 1172 547 1172 528 1173 131 1173 547 1173 10 1174 456 1174 114 1174 113 1175 437 1175 438 1175 419 1176 532 1176 550 1176 303 1177 407 1177 551 1177 531 1178 411 1178 555 1178 132 1179 429 1179 428 1179 540 1180 374 1180 43 1180 403 1181 533 1181 405 1181 415 1182 334 1182 549 1182 105 1183 413 1183 558 1183 24 1184 123 1184 102 1184 104 1185 23 1185 24 1185 104 1186 123 1186 23 1186 132 1187 216 1187 217 1187 216 1188 414 1188 215 1188 132 1189 414 1189 216 1189 289 1190 531 1190 541 1190 170 1191 66 1191 559 1191 170 1192 559 1192 596 1192 67 1193 596 1193 559 1193 67 1194 68 1194 596 1194 495 1195 376 1195 572 1195 495 1196 572 1196 569 1196 495 1197 569 1197 574 1197 495 1198 574 1198 92 1198 66 1199 495 1199 92 1199 560 1200 67 1200 561 1200 393 1201 67 1201 560 1201 398 1202 393 1202 560 1202 566 1203 370 1203 562 1203 563 1204 566 1204 562 1204 71 1205 587 1205 567 1205 74 1206 345 1206 89 1206 74 1207 564 1207 573 1207 74 1208 89 1208 564 1208 74 1209 573 1209 73 1209 74 1210 73 1210 395 1210 582 1211 369 1211 562 1211 582 1212 565 1212 369 1212 71 1213 87 1213 587 1213 566 1214 71 1214 370 1214 566 1215 87 1215 71 1215 371 1216 567 1216 387 1216 371 1217 383 1217 567 1217 82 1218 370 1218 71 1218 82 1219 389 1219 370 1219 245 1220 568 1220 70 1220 77 1221 568 1221 245 1221 84 1222 245 1222 173 1222 84 1223 85 1223 245 1223 245 1224 70 1224 173 1224 569 1225 572 1225 570 1225 574 1226 569 1226 570 1226 90 1227 338 1227 571 1227 570 1228 340 1228 586 1228 89 1229 88 1229 564 1229 294 1230 338 1231 90 1232 572 1233 340 1233 570 1233 564 1234 88 1234 573 1234 570 1235 586 1235 574 1235 586 1236 92 1236 574 1236 90 1237 571 1237 575 1237 571 1238 556 1238 575 1238 587 1239 87 1239 446 1239 577 1240 351 1241 578 1242 351 1243 83 1244 578 1245 83 1246 380 1246 578 1246 578 1247 380 1247 351 1247 70 1248 568 1248 579 1248 583 1249 350 1250 584 1251 584 1252 350 1253 391 1254 391 1255 392 1256 584 1257 584 1258 392 1258 350 1258 586 1259 585 1259 560 1259 586 1260 560 1260 561 1260 567 1261 587 1261 387 1261 91 1262 575 1263 556 1264 46 1265 403 1265 57 1265 403 1266 363 1267 57 1268 589 1269 363 1269 403 1269 518 1270 56 1270 452 1270 518 1271 365 1271 56 1271 369 1272 452 1272 56 1272 369 1273 362 1273 452 1273 404 1274 403 1274 46 1274 360 1275 590 1275 591 1275 30 1276 590 1276 25 1276 25 1277 590 1277 360 1277 593 1278 31 1278 358 1278 31 1279 32 1279 28 1279 31 1280 28 1280 358 1280 32 1281 31 1281 593 1281 592 1282 593 1282 358 1282 29 1283 591 1283 590 1283 30 1284 29 1284 590 1284 356 1285 427 1285 435 1285 458 1286 531 1286 555 1286 375 1287 376 1287 377 1287 398 1288 560 1288 585 1288 453 1289 73 1289 72 1289</p>
        </triangles>
      </mesh>
    </geometry>
  </library_geometries>
  <library_visual_scenes>
    <visual_scene id="Scene" name="Scene">
      <node id="node0" name="node0" type="NODE">
        <matrix sid="transform">1 0 0 0 0 1 0 0 0 0 1 0 0 0 0 1</matrix>
        <instance_geometry url="#Mesh-mesh" name="node0">
          <bind_material>
            <technique_common>
              <instance_material symbol="Mesh-material" target="#Mesh-material"/>
            </technique_common>
          </bind_material>
        </instance_geometry>
      </node>
    </visual_scene>
  </library_visual_scenes>
  <scene>
    <instance_visual_scene url="#Scene"/>
  </scene>
</COLLADA>